<?xml version="1.0" encoding="UTF-8"?>
<svg id="Layer_1" xmlns="http://www.w3.org/2000/svg" version="1.1" viewBox="0 0 1795.895952 1795.7287819">
  <!-- Generator: Adobe Illustrator 30.5.1, SVG Export Plug-In . SVG Version: 2.1.4 Build 3)  -->
  <path d="M1630.1088769,11.3623812L1759.2817285.0612414c13.6118164-1.1908798,21.2861328,15.2668152,11.6243896,24.9285812l-91.6877441,91.6878281c-24.1461182,24.1461182-63.2946777,24.1461334-87.4407959.0000153l-.0001221-.0001373c-37.1373291-37.1372986-13.9886475-100.7377319,38.331543-105.315155l-.0001221.0000076Z"/>
  <path d="M1784.5335596,165.7870868l11.3011475-129.1727905c1.190918-13.6118088-15.2668457-21.2861633-24.9285889-11.6243973l-91.6878662,91.687767c-24.1461182,24.1461029-24.1461182,63.294693,0,87.4408417l.0001221.0001526c37.1373291,37.1373291,100.7376709,13.988678,105.3151855-38.331543v-.0000305Z"/>
  <g>
    <line x1="394.6510827" y1="1401.2446978" x2="1679.2182519" y2="116.6775897" fill="none" stroke="#000" stroke-miterlimit="10" stroke-width="5.052279"/>
    <g>
      <path d="M261.7986963,1417.0794146c.3710938-.3710938.6416016-.7451172.8085938-1.125.168457-.3789062.2426758-.7646484.2250977-1.1533203-.0175781-.3876953-.1328125-.7773438-.3442383-1.1650391-.2119141-.3876953-.512207-.7773438-.9008789-1.1660156l-.5566406-.5566406c-.3974609-.3974609-.7905273-.7011719-1.1782227-.9130859-.3891602-.2128906-.7768555-.3261719-1.1655273-.34375-.3896484-.0195312-.7724609.0576172-1.152832.2246094-.3789062.1679688-.7548828.4365234-1.1259766.8076172l-1.4042969,1.4042969,5.390625,5.390625,1.4042969-1.4042969Z"/>
      <path d="M215.2777002,1497.0471881c.1459961.2783203.2719727.5234375.3779297.7353516l1.2583008,2.5839844,2.4775391-2.4775391-2.5703125-1.2714844c-.1318359-.0615234-.2949219-.140625-.4897461-.2382812-.1943359-.0976562-.3969727-.203125-.6098633-.3183594-.2119141-.1142578-.4228516-.2333984-.6352539-.3574219-.2119141-.1230469-.4018555-.2246094-.5698242-.3046875l-.0927734.0927734c.1328125.203125.2724609.4443359.4179688.7226562.1459961.2783203.2915039.5566406.4360352.8330078Z"/>
      <path d="M230.9827783,1441.1829303c-.0141602-.4023438-.206543-.7900391-.5766602-1.1601562-.265625-.265625-.5239258-.4394531-.7753906-.5234375-.2519531-.0839844-.5078125-.0878906-.7680664-.0126953-.2607422.0742188-.5185547.2412109-.7749023.4970703l-2.0263672,2.0263672,2.3574219,2.3574219,2.0263672-2.0263672c.3710938-.3710938.550293-.7568359.5375977-1.1582031Z"/>
      <path d="M258.567251,1498.3069537l-.5820312-.5820312c-.40625-.40625-.8168945-.7197266-1.2324219-.9414062-.4145508-.2207031-.8320312-.3417969-1.2509766-.3642578-.4199219-.0214844-.8330078.0556641-1.2392578.2314453-.4057617.1777344-.7993164.4550781-1.1787109.8349609-.3886719.3886719-.6708984.7861328-.8481445,1.1923828-.1762695.40625-.2514648.8173828-.2246094,1.2324219.0263672.4140625.1499023.8300781.3706055,1.2441406.2207031.4160156.5351562.8261719.9414062,1.2324219l.5820312.5820312c.3984375.3984375.8037109.7080078,1.21875.9277344.4140625.2207031.8305664.3457031,1.2456055.3710938.4145508.0273438.8256836-.0478516,1.2314453-.2246094.4067383-.1767578.8041992-.4589844,1.1928711-.8476562.3793945-.3798828.6577148-.7734375.8339844-1.1796875.1767578-.4052734.2539062-.8183594.2324219-1.2382812-.0224609-.4189453-.1450195-.8378906-.3652344-1.2519531s-.5292969-.8203125-.9277344-1.21875Z"/>
      <path d="M213.6082666,1465.2698443c.3710938-.3710938.6416016-.7451172.809082-1.125.1679688-.3798828.2426758-.7646484.2250977-1.1533203-.0180664-.3886719-.1328125-.7773438-.3442383-1.1650391-.2119141-.3886719-.512207-.7773438-.9008789-1.1660156l-.5566406-.5566406c-.3974609-.3974609-.7905273-.7011719-1.1782227-.9130859-.3891602-.2128906-.7773438-.3271484-1.1655273-.3447266-.3896484-.0185547-.7729492.0576172-1.152832.2246094-.3793945.1689453-.7553711.4375-1.1264648.8085938l-1.4038086,1.4042969,5.390625,5.390625,1.4038086-1.4042969Z"/>
      <path d="M315.6331689,1441.2151568l-.5566406-.5566406c-.3974609-.3964844-.7905273-.7011719-1.1782227-.9130859-.3891602-.2119141-.7773438-.3261719-1.1655273-.34375-.3896484-.0185547-.7729492.0576172-1.152832.2246094-.3803711.1669922-.7553711.4365234-1.1259766.8076172l-1.4042969,1.4042969,5.390625,5.390625,1.4042969-1.4042969c.3706055-.3710938.6411133-.7451172.8085938-1.125.1679688-.3789062.2426758-.7636719.2250977-1.1523438-.0180664-.3886719-.1328125-.7773438-.3442383-1.1660156-.2119141-.3876953-.512207-.7773438-.9008789-1.1660156Z"/>
      <path d="M234.7303369,1477.9798053c-.1943359-.0966797-.3969727-.2021484-.609375-.3183594-.2119141-.1142578-.4233398-.2333984-.6352539-.3564453-.2124023-.1240234-.4018555-.2255859-.5698242-.3056641l-.0927734.0927734c.1323242.203125.2719727.4443359.4179688.7226562.1455078.2783203.2910156.5566406.4355469.8339844.1459961.2773438.2719727.5234375.3779297.7353516l1.2587891,2.5830078,2.4770508-2.4765625-2.5698242-1.2724609c-.1323242-.0615234-.2954102-.140625-.4902344-.2382812Z"/>
      <path d="M302.1942041,1418.0803912c.3706055-.3710938.6401367-.7460938.8076172-1.1259766.1679688-.3789062.2426758-.7646484.2250977-1.1523438-.0170898-.3876953-.1318359-.7763672-.3442383-1.1660156-.2119141-.3876953-.512207-.7763672-.9008789-1.1650391l-.5566406-.5566406c-.3964844-.3964844-.7905273-.7021484-1.1782227-.9140625-.3891602-.2119141-.7773438-.3261719-1.1655273-.34375-.3896484-.0195312-.7729492.0576172-1.152832.2246094-.3793945.1679688-.7553711.4365234-1.1259766.8076172l-1.4042969,1.4042969,5.3916016,5.3916016,1.4042969-1.4042969Z"/>
      <path d="M289.3455713,1421.100899c-.2568359-.0791016-.5112305-.0869141-.7617188-.0195312-.2529297.0654297-.4931641.2138672-.7226562.4433594l-2.4501953,2.4501953,2.3310547,2.3310547,2.4501953-2.4501953c.3266602-.3261719.4824219-.6972656.4638672-1.1123047-.0180664-.4160156-.2075195-.8037109-.5698242-1.1660156-.2373047-.2373047-.4848633-.3964844-.7407227-.4765625Z"/>
      <path d="M279.1844385,1433.5257037c-.1938477-.0966797-.3964844-.203125-.609375-.3183594-.2119141-.1142578-.4228516-.2333984-.6352539-.3574219-.2124023-.1230469-.4018555-.2246094-.5698242-.3046875l-.0927734.0927734c.1328125.203125.2724609.4443359.4179688.7226562s.2915039.5566406.4360352.8330078c.1459961.2783203.2719727.5234375.3779297.7363281l1.2583008,2.5830078,2.4775391-2.4775391-2.5703125-1.2714844c-.1318359-.0615234-.2949219-.140625-.4902344-.2382812Z"/>
      <path d="M376.2620752,1375.5803912c-.2563477-.0791016-.5107422-.0859375-.7626953-.0205078-.2514648.0664062-.4916992.2148438-.7211914.4443359l-2.4506836,2.4511719,2.3310547,2.3300781,2.4506836-2.4501953c.3266602-.3261719.480957-.6982422.4628906-1.1132812-.0170898-.4150391-.2070312-.8027344-.5693359-1.1650391-.2382812-.2382812-.4853516-.3974609-.7407227-.4765625Z"/>
      <g>
        <path d="M371.4022119,1351.3875201l-258.345459,22.6020508c-104.6403809,9.1552734-150.9377441,136.355957-76.6630859,210.6303711l.0002441.0004883c48.2922363,48.2919922,126.5894775,48.2919922,174.8818359,0l183.3754883-183.3759766c19.3234863-19.3232422,3.9746094-52.2387695-23.2490234-49.8569336ZM308.7108056,1397.0716021l1.8544922,1.8544922-5.1396484,5.1396484,1.7089844,1.7089844,4.4907227-4.4902344,1.8154297,1.8154297-4.4907227,4.4902344,1.8671875,1.8671875,5.2324219-5.2324219,1.8544922,1.8544922-7.6035156,7.6035156-9.1005859-9.1005859,7.5107422-7.5107422ZM297.9749658,1408.7874224c1.0102539-.3574219,2.0297852-.3808594,3.0532227-.0722656,1.0244141.3095703,2.0581055.9853516,3.1000977,2.0273438,1.0332031,1.0332031,1.7084961,2.0664062,2.0258789,3.0986328.3183594,1.0332031.2978516,2.0556641-.059082,3.0673828-.3574219,1.0117188-1.03125,2.0117188-2.0200195,3l-3.8017578,3.8017578-9.1005859-9.1005859,3.8017578-3.8017578c.9887695-.9892578,1.9897461-1.6611328,3.0004883-2.0205078ZM292.7098291,1431.2737506l-2.371582,2.3710938-9.1005859-9.1005859,5.2856445-5.2851562c.6708984-.6708984,1.3579102-1.1054688,2.0600586-1.3037109.7016602-.2001953,1.3837891-.1933594,2.0463867.0195312.6621094.2109375,1.2626953.5869141,1.8017578,1.1259766.5820312.5820312.9658203,1.2353516,1.1518555,1.9599609.1855469.7246094.1635742,1.4570312-.065918,2.1982422l5.4311523,1.7753906-2.6494141,2.6494141-4.7158203-1.6953125-2.0795898,2.0791016,3.2060547,3.2060547ZM282.0067041,1441.9768756l-2.4375,2.4375-5.6831055-12.5185547,2.8481445-2.8476562,12.5180664,5.6826172-2.5297852,2.5302734-2.1196289-1.0332031-3.6293945,3.6298828,1.0332031,2.1191406ZM243.2674463,1471.085274l.3652344.3652344,4.4501953,4.4501953-2.1987305,2.1992188-9.1005859-9.1005859,2.105957-2.1064453,7.5371094.9140625c.1333008.0097656.3154297.0283203.5498047.0595703s.46875.0664062.7026367.1064453c.2338867.0390625.4125977.0771484.5361328.1123047l.0537109-.0791016-.5634766-.5634766-.4570312-.4570312-4.2255859-4.2255859,2.1987305-2.1992188,9.1005859,9.1005859-2.0932617,2.0927734-7.9604492-.9394531c-.2563477-.0273438-.5107422-.0654297-.7626953-.1142578-.2509766-.0478516-.4570312-.0898438-.6152344-.125l-.0527344.0800781.4296875.4296875ZM237.5521142,1486.4309771l-2.4370117,2.4375-5.6831055-12.5175781,2.8476562-2.8486328,12.5185547,5.6835938-2.5302734,2.5292969-2.1191406-1.0322266-3.6293945,3.6289062,1.0327148,2.1191406ZM251.4339502,1458.2425006l-2.9536133,2.9541016-1.9472656-1.9472656,8.2788086-8.2783203,1.9472656,1.9472656-2.9541016,2.953125,7.1533203,7.1533203-2.3710938,2.3720703-7.1533203-7.1542969ZM259.2093408,1453.6204303l3.3510742-3.3515625,1.8154297,1.8154297-3.3510742,3.3515625-1.8154297-1.8154297ZM262.7059228,1446.9300006c-.3173828-1.0673828-.2910156-2.1367188.0800781-3.2050781s1.0634766-2.1103516,2.0795898-3.1259766c.6088867-.609375,1.2543945-1.1123047,1.9335938-1.5107422.6801758-.3964844,1.3671875-.6640625,2.0605469-.8007812s1.3642578-.109375,2.0141602.0800781c.6484375.1894531,1.2553711.5673828,1.8208008,1.1328125l-2.331543,2.3310547c-.2392578-.2392578-.5058594-.4003906-.8012695-.4833984-.2963867-.0849609-.6030273-.0947266-.9204102-.0332031-.3193359.0615234-.6342773.1835938-.9477539.3632812-.3129883.1826172-.6064453.4101562-.8803711.6835938-.40625.40625-.7143555.8183594-.9208984,1.2373047-.2084961.4189453-.3027344.8417969-.2851562,1.265625.0185547.4248047.1347656.8457031.3515625,1.265625.2158203.4189453.5361328.8408203.9599609,1.2646484l.5830078.5830078c.5654297.5654297,1.1254883.9482422,1.6821289,1.1513672.5566406.2041016,1.1079102.2207031,1.6557617.0537109.5473633-.1679688,1.0820312-.5117188,1.6035156-1.0332031.40625-.40625.7080078-.8330078.9072266-1.2783203.1982422-.4462891.2753906-.8808594.230957-1.3056641-.043457-.4228516-.2290039-.7978516-.5561523-1.125l-.0664062-.0664062-2.4501953,2.4501953-1.6689453-1.6689453,4.7553711-4.7548828,4.9941406,4.9941406-1.3774414,1.3769531-1.1796875-.7285156c-.0258789.5214844-.1123047,1.0224609-.2587891,1.5029297-.1445312.4824219-.3657227.9501953-.6611328,1.4052734-.2963867.4541016-.6777344.9160156-1.1455078,1.3837891-1.4663086,1.4658203-2.9697266,2.1923828-4.5112305,2.1787109-1.5410156-.0126953-3.1064453-.8144531-4.6953125-2.4033203-1.0517578-1.0517578-1.7353516-2.1103516-2.0541992-3.1806641ZM288.0667627,1376.3206256l1.9472656,1.9472656-2.9536133,2.9541016,7.1533203,7.1533203-2.371582,2.3710938-7.1533203-7.1533203-2.9536133,2.9541016-1.9472656-1.9472656,8.2788086-8.2792969ZM272.1443994,1392.2434771l7.5375977.9140625c.1318359.0087891.3149414.0283203.5498047.0595703.2338867.03125.4682617.0664062.7021484.1054688.2338867.0400391.4125977.078125.5361328.1123047l.0537109-.0791016c-.1943359-.1933594-.3818359-.3808594-.5634766-.5625-.1806641-.1816406-.3330078-.3339844-.4570312-.4570312l-4.2255859-4.2265625,2.1987305-2.1982422,9.1005859,9.1005859-2.0927734,2.0927734-7.9614258-.9404297c-.2558594-.0263672-.5102539-.0644531-.762207-.1132812-.2509766-.0478516-.4570312-.0898438-.6162109-.1259766l-.0517578.0810547.4296875.4296875.3642578.3642578,4.4511719,4.4511719-2.1987305,2.1982422-9.1005859-9.1005859,2.105957-2.1054688ZM268.3162744,1396.0716021l1.8544922,1.8544922-5.1396484,5.1396484,1.7089844,1.7089844,4.4907227-4.4912109,1.8144531,1.8144531-4.4907227,4.4912109,1.8671875,1.8671875,5.2324219-5.2324219,1.8554688,1.8554688-7.6035156,7.6035156-9.1005859-9.1005859,7.5107422-7.5107422ZM254.5799463,1409.8079303c.9887695-.9892578,1.9887695-1.6630859,3.0004883-2.0205078,1.0102539-.3574219,2.0288086-.3818359,3.0532227-.0722656,1.0249023.3095703,2.0581055.984375,3.1000977,2.0273438,1.0322266,1.03125,1.7089844,2.0664062,2.0258789,3.0986328.3183594,1.0332031.2978516,2.0556641-.059082,3.0664062-.3574219,1.0117188-1.03125,2.0117188-2.0200195,3.0009766l-3.8017578,3.8017578-9.1005859-9.1005859,3.8017578-3.8017578ZM242.4598291,1421.9280474l7.5371094.9140625c.1318359.0087891.3154297.0283203.5498047.0595703.2338867.03125.4682617.0673828.7021484.1064453s.4125977.0771484.5361328.1123047l.0537109-.0791016-.5634766-.5634766-.4570312-.4570312-4.2255859-4.2255859,2.1987305-2.1992188,9.1005859,9.1005859-2.0927734,2.09375-7.9614258-.9414062c-.2558594-.0253906-.5102539-.0634766-.762207-.1132812-.2509766-.0478516-.456543-.0898438-.6162109-.1259766l-.0512695.0810547.4296875.4296875.3642578.3642578,4.4511719,4.4511719-2.1992188,2.1992188-9.1005859-9.1005859,2.1064453-2.1064453ZM238.6317041,1425.7561724l1.8544922,1.8544922-5.1396484,5.1396484,1.7089844,1.7089844,4.4902344-4.4902344,1.8144531,1.8144531-4.4902344,4.4902344,1.8671875,1.8671875,5.2324219-5.2324219,1.8554688,1.8554688-7.6035156,7.6035156-9.1005859-9.1005859,7.5107422-7.5107422ZM226.8553369,1437.5325396c.6181641-.6181641,1.2719727-1.0205078,1.9609375-1.2050781.6884766-.1865234,1.3735352-.171875,2.0527344.0390625.6801758.2119141,1.3208008.6181641,1.9213867,1.2197266.6181641.6171875,1.0307617,1.2734375,1.2382812,1.9667969.2070312.6923828.2133789,1.3876953.0195312,2.0859375-.1938477.6972656-.6000977,1.3554688-1.2182617,1.9736328l-2.5830078,2.5830078,3.0732422,3.0732422-2.3710938,2.3710938-9.1005859-9.1005859,5.0068359-5.0068359ZM220.126333,1444.2620318l1.8544922,1.8535156-5.1396484,5.140625,1.7089844,1.7089844,4.4907227-4.4912109,1.8144531,1.8144531-4.4907227,4.4912109,1.8671875,1.8671875,5.2324219-5.2324219,1.8554688,1.8554688-7.6035156,7.6035156-9.1005859-9.1015625,7.5107422-7.5097656ZM206.3900049,1457.9983599c.9887695-.9892578,1.9887695-1.6630859,3.0004883-2.0205078,1.0102539-.3583984,2.0283203-.3818359,3.0532227-.0732422,1.0249023.3095703,2.0581055.9853516,3.1000977,2.0273438,1.0322266,1.0322266,1.7089844,2.0664062,2.0258789,3.0996094.3178711,1.0332031.2978516,2.0546875-.059082,3.0664062-.3574219,1.0117188-1.03125,2.0117188-2.0200195,3.0009766l-3.8017578,3.8017578-9.1005859-9.1005859,3.8017578-3.8017578ZM219.1531885,1504.8303912l-2.4375,2.4375-5.6826172-12.5185547,2.8476562-2.8476562,12.5180664,5.6826172-2.5297852,2.5302734-2.1196289-1.0332031-3.6293945,3.6298828,1.0332031,2.1191406ZM194.2693994,1470.1184771l7.5371094.9140625c.1318359.0087891.3154297.0283203.5498047.0595703s.46875.0664062.7026367.1064453c.2338867.0390625.4125977.0771484.5361328.1123047l.0532227-.0791016-.5634766-.5634766-.4570312-.4570312-4.2255859-4.2255859,2.1992188-2.1992188,9.1005859,9.1005859-2.0932617,2.0927734-7.9614258-.9404297c-.2553711-.0253906-.5097656-.0644531-.7617188-.1132812-.2509766-.0478516-.4570312-.0898438-.6162109-.1259766l-.0517578.0810547.4296875.4296875.3642578.3642578,4.4511719,4.4511719-2.1987305,2.1992188-9.1005859-9.1005859,2.105957-2.1064453ZM190.176626,1474.2112506l9.1005859,9.1005859-2.3710938,2.3710938-9.1005859-9.1005859,2.3710938-2.3710938ZM162.4149682,1413.1164019c1.4121094-1.5441895,1.9468384-.925293,3.3588867.4786377,3.6732178,3.6643066,8.1195679,8.0904541,11.9174194,11.8809814,3.8419189,3.9927979,8.0438843,6.9257812,8.189209,12.4747314.0693359,4.6890869-3.7128296,9.0036621-8.293396,9.8077393-1.8676147.3529053-3.432373.2943115-4.444397,1.4127197-1.3125,1.5192871-1.6286621,3.7192383-2.2406616,5.6248779-.9031982,2.6513672-.975708,5.7478027-4.0165405,2.5598145-1.1821289-1.1502686-2.791687-2.7371826-3.9556274-3.960083-1.1107788-1.1378174-1.9501953-2.4414062-1.6386108-4.0479736.3245239-2.8896484,2.9852905-6.4980469,1.2251587-9.2954102-1.2543945-1.6828613-3.1150513-3.9591064-5.1259766-4.5600586-2.4300537-.2895508-4.3256836,3.5466309-6.3479004,4.1517334-1.9101562.5512695-3.2258911-1.4464111-4.5435791-2.5950928-1.0635376-1.0979004-2.675415-2.5181885-3.2010498-3.631958l-.0203857-.0527344c-.3256226-.8470459.3807983-1.4217529,1.5561523-2.6213379,5.1069336-5.1254883,14.2988892-14.3468018,17.5812988-17.6265869ZM108.6918237,1422.0142291c.7810059-5.0455322,1.7703857-11.5222168,2.5835571-16.7845459v-.0001221c.3307495-2.1298828.6219482-4.1118164.9552002-6.1462402.322998-1.9213867.628418-1.9902344,2.730835-1.6774902,5.9291382.9104004,12.1331177,1.8789062,18.1178589,2.8032227,2.9223022.4552002,5.2717896.8145752,7.6642456,1.1870117,1.5797119.2856445,3.7145996.3641357,4.0025024,1.3182373.5535278,1.7611084-.0297241,4.6738281-.913208,5.9615479-1.3311768,1.3353271-3.2138062.3679199-5.9373169.1070557-2.880188-.4470215-6.0736084-.9404297-8.9622803-1.3881836-1.6899414-.1954346-3.2915649-.7084961-4.9255981-.4610596-2.0909424.4606934-2.2659912,2.8554688.3381958,3.7003174,3.3634644.8106689,7.2214966,1.168335,10.6166382,1.7687988,2.2426758.487915,4.0667725.1807861,4.9320679,1.9576416.5131836,1.6503906.0233154,4.3254395-1.1137085,5.269043-.8561401.6162109-1.8804932.4285889-2.9448853.314209-1.8080444-.2580566-3.7943115-.581665-5.7212524-.8754883-2.3704224-.3487549-4.703064-.772583-6.2955322-.9274902-2.338501-.2468262-3.3765869,1.0325928-3.1706543,2.2653809.1443481,1.6065674,2.770752,2.034668,4.2883301,2.2088623,4.2142944.6625977,10.9023438,1.668457,14.1919556,2.2139893.6127319.1223145,1.237793.2537842,1.7142944.5629883,1.2921753.9117432.8373413,2.8399658.6583252,4.2468262-.2732544,1.2972412-.5162964,2.949707-1.9882812,2.9705811-6.2091064-.7128906-24.3977661-3.7595215-29.7728882-4.527832-.5906982-.1097412-1.2006226-.1916504-1.5270386-.5916748l-.0193481-.0281982c-.4732666-.4688721.3291016-3.9398193.4979858-5.4473877ZM71.4124658,1407.5324176c5.5701904-1.7139893,23.9604492-7.376709,32.4951172-9.979126,1.6196289-.6376953,2.1463623.7088623,2.5874023,2.0181885.9711914,3.1032715,2.1240234,5.7012939-1.8139648,6.7279053-2.0819092.7154541-5.5200806,1.6092529-7.4727783,2.4179688-1.6400757.5800781-1.3791504,1.881958-.9611206,3.2260742,1.1384888,3.9083252,3.8432007,12.8874512,4.8907471,16.5367432.1524658.5963135.3013306,1.1894531.1773682,1.7264404-.4111328,1.1104736-1.4397583,1.251709-2.7409668,1.7600098-1.8551636.5194092-5.2376709,1.8985596-6.8764648,1.6956787l-.0586548-.0141602c-.8764648-.2519531-1.0802612-1.2302246-1.3671265-2.0402832-1.4348145-4.4542236-3.7411499-13.2818604-5.4197998-17.7757568-.9199829-1.6185303-3.1879272-.2930908-4.9622803.1025391-1.4599609.4428711-3.1308594.9747314-4.4529419,1.3537598-2.4272461.7424316-3.6171265.4835205-4.442627-1.7753906-.5117798-1.3521729-.9708252-3.0179443-1.0985718-4.0378418v.0001221c-.2074585-1.2402344.4976196-1.6553955,1.5166626-1.9428711ZM42.992727,1430.6492389c5.8720703-5.1773682,12.5807495-11.0473633,18.3532104-16.125,1.5622559-1.3302002,2.3606567-2.2879639,3.3071899-2.0063477,1.4916992.6459961,3.4644165,2.8564453,3.927002,4.5159912.1676636.9648438-.56427,1.668457-1.2305298,2.3111572-2.425415,2.1875-7.4860229,6.5689697-10.1290283,8.9294434-.6837158.635376-1.4621582,1.3599854-1.4995728,2.2988281-.0202026,1.6239014,1.7102051,3.2003174,3.3670044,2.5358887,1.112915-.4071045,3.0945435-2.3959961,4.6702881-3.7252197,1.6168213-1.4158936,3.3158569-2.9208984,4.5755005-4.010376,1.6325684-1.4248047,2.6035156-1.8890381,3.9491577-.8740234,1.1757812.980835,2.7885132,2.5257568,2.8077393,4.1494141-.0797729.8552246-.7804565,1.5080566-1.4003296,2.1057129-2.2333984,2.0327148-6.4616699,5.6387939-8.4890747,7.5168457-.9110107.7937012-1.5847778,1.9074707-.8435059,3.0263672.7406006,1.4080811,3.039978,3.5036621,3.8997192,5.0635986.2941284.5338135.4678345,1.1235352.3109741,1.7161865-.4490967,1.3820801-1.7606201,2.2769775-2.8421021,3.2996826-1.1380615.9692383-2.6380005,2.4501953-3.7737427,2.87854l-.0543823.0163574c-1.1323853.5201416-2.8848267-2.3151855-4.0255127-3.4260254-3.899353-4.4438477-8.5640869-9.7457275-12.5513306-14.2879639-.9037476-1.0286865-1.7289429-1.9614258-2.5709839-2.9356689v.0001221c-1.2284546-1.427002-1.1899414-1.6936035.2423096-2.9735107ZM28.6551416,1453.3850787c.4794312-1.0345459,1.2688599-2.5202637,1.9746704-3.8930664.5377808-1.0339355,1.0114746-1.9420166,1.409729-2.5474854.8287354-1.3837891,1.5813599-1.0698242,2.6519775-.5234375,4.6706543,2.3717041,19.736084,10.0195312,24.0621338,12.2349854.5177612.2905273,1.0392456.5509033,1.1422119,1.1126709.0671997.4002686-.1071777.9552002-.4616089,1.7382812-.5450439,1.1872559-1.5377197,3.0482178-2.3318481,4.5914307-.7050781,1.3444824-1.2348633,2.3214111-1.7104492,2.7116699l-.0428467.0343018-.000061.0001221c-.3807983.310791-.8234253.2376709-1.2550049.0620117-6.8737793-3.4141846-20.0571899-10.1429443-25.1235962-12.7575684-1.2084961-.6320801-.8886108-1.5322266-.3153076-2.763916ZM18.9742944,1504.6505816c.1334839-2.4246826.302063-5.8745117.4560547-8.6804199.1818237-3.4464111.3659668-6.9470215.5466919-10.3709717.1296387-6.095459.7583618-11.5959473,6.5891724-14.1202393,3.1663818-1.2956543,7.0075684-1.0042725,9.8891602.866333,1.6646118,1.076416,2.7376099,2.439209,4.1759644,2.6672363,3.0666504.2287598,6.0722046-2.2714844,8.8134766-3.2299805,2.2755127-.960083,2.3320312.2039795,2.2884521,2.3664551-.0668335,1.6566162-.1731567,3.9260254-.3080444,5.6179199-.1038818,1.6101074-.5438232,3.1162109-1.9717407,3.9598389-2.335022,1.6900635-6.9797974,2.1324463-7.9648438,5.3952637-.4241943,2.043457-.8851318,5.0214844.0386963,6.8928223,1.4762573,2.0065918,5.6983032.7979736,7.5552368,1.8905029,1.7300415,1.0270996,1.1195068,3.3728027,1.1430664,5.1281738-.1079712,1.5354004-.0861206,3.6940918-.5766602,4.8363037l-.0263062.0509033c-.4606323.8931885-1.5599976.6560059-3.6253052.6010742-7.9008179-.3696289-20.6580811-.7915039-25.8980713-1.1300049-1.4837036-.161377-1.1315918-1.3587646-1.125-2.7412109ZM35.1448877,1550.2283404c-.897644-1.9361572-2.6351318-5.8665771-3.7902832-8.4326172-2.8704834-6.5964355-5.2148438-10.6697998-4.5921021-17.4282227.9338379-10.1737061,14.5032959-16.2613525,22.7053833-10.1881104,4.4163208,3.052002,6.7352295,7.8161621,8.861084,12.6218262,1.0194092,2.2766113,2.5466309,5.6876221,3.7595215,8.3974609.6533813,1.4998779,1.789917,3.817627,1.6021118,4.3308105l.000061-.0001221-.0065918.0423584c-.071228.4049072-.4071655.6362305-.7568359.835083-6.4594727,2.9976807-20.7840576,9.3500977-25.0552979,11.2719727-1.5939331.802002-2.0753174-.0383301-2.7270508-1.4504395ZM84.8323877,1591.5822222c-1.098877,1.2631836-2.1466675.251709-3.5101318-.5716553-1.1112671-.7406006-2.6148071-1.782959-4.1708374-2.8449707-2.1094971-1.6599121-5.6115112-3.2324219-6.5547485-5.3067627-.3586426-.9675293-.0630493-2.3151855.4204102-4.078125.9447632-3.482666,2.0779419-6.9991455,2.9981689-10.3535156.6820679-2.8688965-.9814453-2.0041504-3.5275269.0456543-2.7237549,2.0444336-6.2661133,4.9466553-8.9008179,6.5505371-1.7113647,1.1184082-3.4534912.1512451-4.921814-.8967285-2.194519-1.4907227-5.5227051-3.7702637-7.5547485-5.1749268-.8290405-.6470947-1.9752197-1.2122803-2.2509766-2.229126-.2357788-.9241943,2.1365356-3.7060547,3.0250854-5.1552734,4.5474243-6.2598877,9.7824707-14.8525391,13.3954468-19.0311279,1.4864502-.8222656,3.8508911,1.5062256,5.324707,2.3477783,1.9926758,1.3830566,4.0963745,2.7539062,2.4127808,5.2785645-1.6641235,2.6993408-4.1777344,6.1363525-6.0786133,8.9239502-.6343994.9046631-3.0577393,4.1452637-2.3403931,4.2683105v.0001221c.5053101.1451416,3.1965942-1.9559326,4.6645508-3.0480957,3.0202637-2.0753174,6.8005981-5.2294922,10.159668-7.0804443,2.4641113-1.0843506,4.5140381.8410645,6.6425171,2.302124.6976318.5456543,1.3999023,1.1601562,1.8021851,1.9315186,1.0223999,2.3973389-.5421143,5.2424316-1.0059814,7.7226562-.9170532,3.5992432-1.9509277,6.975708-2.7314453,10.1225586-.062561.4633789-.2607422,1.0930176-.034668,1.3834229.366272.3209229,1.8128052-1.7810059,3.1530762-3.7843018,1.8061523-2.62854,3.6365356-5.3326416,5.4899902-7.9505615,1.4856567-2.1502686,2.6765747-2.7416992,4.585022-1.6481934,1.6629028.9897461,4.196228,2.5323486,5.2559814,3.9215088l.0308228.0513916c.5489502.9119873-.1773071,1.7574463-1.3150635,3.4365234-4.5167847,6.4589844-11.3112183,16.5921631-14.4626465,20.8671875ZM126.6790063,1577.7913287c-2.1989746-.7861328-3.1917725-2.3582764-5.4407349-3.2747803-1.0412598-.4251709-2.1774292-.626709-3.3024292-.7314453-1.4234619-.1512451-5.8656616-.1491699-5.1033936,2.0195312.420166.84021,2.1394043,1.5916748,3.9778442,2.010376,4.7575684,1.1306152,10.2313232,1.8265381,14.0219727,5.128418,2.4923096,2.1236572,3.5189819,5.6929932,2.4143677,8.7845459-1.3605957,4.09021-5.7982178,5.8740234-9.763855,6.4230957-6.1755371.7266846-12.805481.2502441-18.3696899-2.5755615-2.0871582-1.0837402-4.1151733-3.173584-4.65979-5.3413086-.7564697-3.4406738,4.1779175-2.7784424,6.2867432-2.4766846,2.6974487.3200684,4.5605469,1.9458008,6.8977051,3.0112305,1.7293091.7327881,3.8482666.9561768,5.6574097.5059814,1.0991211-.2648926,2.2199097-.9938965,1.3428345-2.0404053-2.1679077-2.0155029-7.3065796-2.1813965-10.3355103-3.1782227-4.0171509-1.0625-8.618103-2.9173584-9.9384766-7.2061768l-.000061.0002441c-.758728-2.4368896-.2879028-5.2282715,1.1282959-7.3408203,3.3087769-4.7738037,10.3007202-5.2636719,15.7264404-4.9456787l.1204834.0076904c6.5460205.5841064,16.2630005,1.7786865,17.6970825,9.5202637.2180176,3.5809326-6.2358398,2.3964844-8.3572388,1.699707ZM150.2309472,1595.524483c-1.7185669.2647705-4.3358765,1.5755615-4.8803711-.2492676-1.4303589-5.5273438-5.2766113-22.0718994-6.5427246-27.2928467v-.0001221c-.1151123-.5889893-.2554932-1.1602783.1047974-1.6104736.2608032-.3164062.7959595-.5505371,1.62146-.7983398,1.2564087-.3695068,3.315979-.8433838,5.0050049-1.2584229,1.4802856-.3514404,2.5668335-.5932617,3.1723633-.4881592l.0539551.0098877c.4859619.0861816.7158813.4749756.8616943.9187012,1.8045044,7.6341553,5.7930298,23.3399658,6.6552124,28.3250732-.0628052,1.5303955-4.4106445,1.8730469-6.0513916,2.4439697ZM197.7155054,1572.8833697c-2.036438,1.2626953-4.9217529,3.0762939-7.2781372,4.5380859-2.8901978,1.8011475-5.8255615,3.6311035-8.6968384,5.4204102-4.9985962,3.3427734-9.8146973,5.9401855-15.1258545,2.5960693-2.838501-1.8670654-4.7514038-5.1774902-4.8580322-8.5852051-.0648804-1.9716797.4343872-3.6210938-.1897583-4.9276123-1.5300903-2.6320801-5.2496338-3.6860352-7.5670776-5.3869629v.0002441c-2.0519409-1.3166504-1.1504517-2.0220947.6281128-3.2119141.7755737-.5087891,1.7338257-1.0959473,2.6607666-1.6760254,1.9917603-1.1662598,4.0362549-2.942749,6.3689575-1.8769531,2.6782837.9520264,5.6383667,4.5048828,8.8414917,3.4669189,1.8945312-.8095703,4.5646973-2.1224365,5.5540161-3.9317627.7935181-2.3435059-2.5574951-5.1156006-2.7174683-7.2540283-.1465454-1.9862061,2.0927734-2.8244629,3.5057373-3.8374023,1.3018188-.7796631,3.0352173-2.019165,4.2359619-2.2644043l.0558472-.0072021c.9816284-.128418,1.4077759.9057617,2.524231,2.6273193,4.1418457,6.6765137,10.9718018,17.3581543,13.6433105,21.838623.7024536,1.2991943-.4570312,1.6936035-1.5852661,2.4718018ZM225.3640039,1543.5673297c-3.1804199,3.2301025-9.5332642,9.6828613-12.5043945,12.6998291-2.5895386,2.8681641-6.0957642,5.3978271-10.1687012,4.9967041-5.0463867-.3999023-9.8453369-5.3084717-9.8810425-10.5059814-.0477905-6.4689941,6.3128052-10.3193359,9.9832153-14.6502686,3.6932373-3.4090576-2.6997681-5.3283081-3.0324097-8.527771v.000061-.0001221.000061c-.0031738-.7877197.49823-1.4679565,1.0030518-2.0768433,1.6204224-1.6568604,3.2950439-3.7769775,5.2119751-4.9436035l.0514526-.0196533c.8839111-.3414307,1.50354.5251465,2.9207153,1.8776855,5.243042,5.1697998,14.8300781,14.5753174,17.7150269,17.458252,1.6207275,1.4262695-.119873,2.3408203-1.2988892,3.6916504ZM217.0067041,1488.7757037l2.543457-2.5429688,6.8085938,3.4697266c.1416016.0712891.324707.1660156.550293.2861328.2250977.1191406.4570312.2402344.6953125.3632812.237793.1230469.4462891.2392578.6220703.3447266l.0927734-.0927734c-.0883789-.1767578-.1933594-.375-.3178711-.5966797-.1235352-.2197266-.2456055-.4433594-.3642578-.6689453-.1186523-.2246094-.222168-.4160156-.3120117-.5761719l-3.4829102-6.8212891,2.4506836-2.4511719,5.8417969,12.359375-2.7553711,2.7548828-12.3725586-5.828125ZM244.4539697,1520.4221881c-.3579102.9042969-.9604492,1.78125-1.8085938,2.6289062-.9799805.9804688-1.9824219,1.6425781-3.0068359,1.9873047-1.0239258.3447266-2.0615234.3447266-3.1118164.0009766-1.050293-.3447266-2.1108398-1.0517578-3.1791992-2.1201172-1.5722656-1.5722656-2.3540039-3.1445312-2.3447266-4.7158203.0078125-1.5722656.75-3.0957031,2.2246094-4.5703125.8212891-.8212891,1.6894531-1.4101562,2.6030273-1.7685547.9140625-.3574219,1.8256836-.4394531,2.7358398-.2441406.909668.1943359,1.7753906.7011719,2.5966797,1.5224609l-2.3183594,2.3183594c-.3886719-.3886719-.800293-.6455078-1.2319336-.7675781-.4331055-.1240234-.8637695-.1230469-1.2915039.0058594-.4287109.1279297-.8417969.390625-1.2392578.7880859-.4941406.4941406-.7988281,1.0019531-.9140625,1.5234375-.1147461.5205078-.0566406,1.046875.1723633,1.5761719.2294922.5302734.6147461,1.0644531,1.152832,1.6025391l.5957031.5957031c.5390625.5390625,1.0756836.9257812,1.6098633,1.1601562.5336914.2333984,1.0576172.2939453,1.5693359.1787109.5126953-.1142578,1.0161133-.4189453,1.5107422-.9130859.4243164-.4248047.7124023-.8554688.8676758-1.2919922.1542969-.4375.1694336-.8730469.0458984-1.3056641-.1230469-.4316406-.3798828-.8427734-.7685547-1.2314453l2.2392578-2.2392578c.8212891.8212891,1.3310547,1.6806641,1.5302734,2.5771484.1987305.8964844.1186523,1.796875-.2392578,2.7021484ZM248.2625635,1517.1175006l-9.1005859-9.1005859,2.3710938-2.3710938,7.1533203,7.1533203,4.6230469-4.6230469,1.9472656,1.9472656-6.9941406,6.9941406ZM262.6873681,1501.9622271c-.3613281,1.0605469-1.0424805,2.0888672-2.0400391,3.0869141-.9980469.9980469-2.0263672,1.6787109-3.0864258,2.0400391-1.0600586.3623047-2.1274414.3847656-3.2055664.0664062-1.0771484-.3173828-2.140625-1.0019531-3.1914062-2.0527344-1.0517578-1.0517578-1.7333984-2.1123047-2.0478516-3.1865234-.3125-1.0722656-.2890625-2.1386719.0737305-3.1982422.3618164-1.0595703,1.0415039-2.0888672,2.0395508-3.0869141.9975586-.9980469,2.0273438-1.6777344,3.0869141-2.0400391,1.059082-.3623047,2.1259766-.3857422,3.1982422-.0732422,1.0737305.3144531,2.1347656.9960938,3.1865234,2.0478516,1.0507812,1.0507812,1.7348633,2.1142578,2.0527344,3.1914062.3183594,1.078125.2954102,2.1455078-.0664062,3.2050781ZM268.754751,1496.6253131l-7.1533203-7.1533203-2.9536133,2.9541016-1.9472656-1.9472656,8.2788086-8.2792969,1.9472656,1.9472656-2.9541016,2.9541016,7.1533203,7.1533203-2.3710938,2.3710938ZM281.4847314,1483.8948443l-3.6699219-3.6699219-3.6958008,3.6962891,3.6699219,3.6699219-2.3710938,2.3710938-9.1005859-9.1005859,2.3710938-2.3710938,3.4970703,3.4970703,3.6958008-3.6962891-3.4970703-3.4960938,2.3710938-2.3710938,9.1005859,9.0996094-2.3710938,2.3710938ZM285.8426416,1479.5374224l-9.1005859-9.1005859,2.3710938-2.3710938,9.1005859,9.1005859-2.3710938,2.3710938ZM296.5457666,1468.8342974l-7.9614258-.9414062c-.2563477-.0263672-.5102539-.0634766-.762207-.1123047-.2509766-.0478516-.4570312-.0898438-.6162109-.1259766l-.0517578.0810547.4296875.4296875.3642578.3642578,4.4511719,4.4511719-2.1987305,2.1982422-9.1005859-9.1005859,2.105957-2.1054688,7.5375977.9140625c.1318359.0078125.3149414.0283203.5498047.0595703.2338867.03125.4682617.0664062.7021484.1064453.2338867.0390625.4125977.0771484.5361328.1113281l.0537109-.078125c-.1943359-.1953125-.3818359-.3828125-.5634766-.5644531-.1806641-.1796875-.3330078-.3320312-.4570312-.4570312l-4.2255859-4.2246094,2.1987305-2.1992188,9.1005859,9.1005859-2.0927734,2.0927734ZM308.1756494,1457.2044146l-1.1787109-.7294922c-.0273438.5214844-.112793,1.0234375-.2587891,1.5029297-.1450195.4824219-.3662109.9501953-.6616211,1.4052734-.2963867.4550781-.6787109.9160156-1.1469727,1.3837891-1.4658203,1.4658203-2.96875,2.1933594-4.5097656,2.1796875s-3.1064453-.8154297-4.6953125-2.4042969c-1.0517578-1.0517578-1.7353516-2.1103516-2.0541992-3.1796875-.3168945-1.0683594-.2915039-2.1367188.0800781-3.2060547.3706055-1.0673828,1.0639648-2.1103516,2.0795898-3.1259766.609375-.609375,1.2543945-1.1123047,1.9335938-1.5097656.6801758-.3974609,1.3662109-.6650391,2.0595703-.8017578s1.3642578-.1103516,2.0136719.0800781c.6499023.1904297,1.2568359.5673828,1.8222656,1.1328125l-2.331543,2.3310547c-.2392578-.2392578-.5058594-.3994141-.8012695-.4833984-.2963867-.0839844-.6035156-.0957031-.9204102-.0332031-.3188477.0615234-.6342773.1835938-.9477539.3642578s-.6074219.4082031-.8808594.6816406c-.4067383.40625-.7138672.8193359-.9208984,1.2392578-.2080078.4189453-.3022461.8408203-.2841797,1.2646484.0170898.4238281.1333008.8447266.3505859,1.2646484.2163086.4199219.5361328.8408203.9609375,1.265625l.5820312.5820312c.5654297.5654297,1.1259766.9501953,1.6826172,1.1533203s1.1079102.2197266,1.6557617.0527344c.5473633-.1679688,1.0820312-.5117188,1.6035156-1.0322266.4057617-.40625.7075195-.8330078.9072266-1.2792969.1982422-.4453125.2753906-.8808594.230957-1.3046875s-.2294922-.7998047-.5556641-1.1259766l-.0664062-.0664062-2.4511719,2.4511719-1.6689453-1.6689453,4.7558594-4.7558594,4.9941406,4.9941406-1.3779297,1.3779297ZM319.7464502,1444.6526568c-.3574219,1.0117188-1.03125,2.0117188-2.0200195,3.0009766l-3.8017578,3.8017578-9.1005859-9.1005859,3.8017578-3.8017578c.9887695-.9882812,1.9887695-1.6621094,3.0004883-2.0195312,1.0102539-.3583984,2.0288086-.3828125,3.0532227-.0732422s2.0571289.984375,3.1000977,2.0273438c1.0322266,1.0322266,1.7084961,2.0664062,2.0258789,3.0986328.3183594,1.0332031.2978516,2.0556641-.059082,3.0664062ZM323.9520166,1441.4280474l-9.1005859-9.1005859,7.5107422-7.5107422,1.8544922,1.8544922-5.1396484,5.1396484,1.7089844,1.7089844,4.4907227-4.4902344,1.8144531,1.8144531-4.4907227,4.4902344,1.8671875,1.8671875,5.2324219-5.2324219,1.8554688,1.8554688-7.6035156,7.6035156ZM338.8348291,1426.2542193c-.394043.7988281-.9658203,1.5732422-1.7167969,2.3242188-.5737305.5742188-1.1630859,1.0615234-1.7670898,1.4648438-.6049805.4013672-1.2148438.6796875-1.8286133.8339844-.6132812.1542969-1.21875.1542969-1.8144531,0s-1.1679688-.5058594-1.7158203-1.0537109l-.1191406-.1191406c-.0439453-.0439453-.0751953-.0830078-.0932617-.1201172l2.2915039-2.2910156c.0273438.0273438.0585938.0625.0927734.1064453.0356445.0439453.0668945.0791016.0932617.1054688.2832031.2832031.5825195.4375.9013672.4648438.3173828.0253906.6469727-.0556641.9858398-.2460938.340332-.1904297.6875-.4609375,1.0405273-.8144531.1943359-.1943359.3666992-.3837891.5170898-.5693359.1489258-.1855469.269043-.3662109.3574219-.5429688.0883789-.1757812.1499023-.3486328.1845703-.5166016.0351562-.1679688.03125-.3222656-.0126953-.4638672-.0444336-.140625-.128418-.2744141-.2514648-.3974609-.203125-.203125-.449707-.2939453-.7358398-.2714844s-.6054688.1191406-.953125.2910156c-.3496094.171875-.7265625.3828125-1.1323242.6298828-.4067383.2470703-.8305664.5029297-1.2719727.7685547-.4418945.2646484-.8925781.4941406-1.3510742.6884766-.4594727.1943359-.9208984.3203125-1.3842773.3769531-.4638672.0576172-.925293.0117188-1.3847656-.1386719-.4589844-.1503906-.9042969-.4414062-1.3369141-.8740234-.4775391-.4775391-.7885742-.9912109-.9345703-1.5439453-.1459961-.5517578-.1494141-1.1162109-.0136719-1.6953125.137207-.578125.3886719-1.1523438.7553711-1.7216797.3662109-.5703125.8144531-1.1201172,1.3442383-1.6494141.5214844-.5214844,1.0625-.9550781,1.6230469-1.3046875.5615234-.3486328,1.1303711-.5869141,1.7089844-.7148438.578125-.1289062,1.137207-.1210938,1.6748047.0185547.5395508.1425781,1.0512695.4462891,1.5380859.9150391l.1582031.1582031-2.2788086,2.2783203-.0927734-.0927734c-.2021484-.2021484-.4370117-.3261719-.7016602-.3701172s-.5546875-.0019531-.8676758.1259766c-.3139648.1279297-.6333008.3554688-.9599609.6816406-.3266602.3271484-.5722656.6337891-.7353516.9208984-.1635742.2871094-.2475586.546875-.2514648.78125-.0043945.234375.0727539.4306641.2319336.5898438.1933594.1933594.4306641.2763672.7075195.2441406.2792969-.0292969.5947266-.1337891.9472656-.3105469.3540039-.1767578.730957-.390625,1.1328125-.6425781.4018555-.2509766.8198242-.5087891,1.2514648-.7753906.434082-.2636719.8774414-.4960938,1.3320312-.6943359.4545898-.1992188.9135742-.3320312,1.3774414-.3974609.4633789-.0673828.9179688-.03125,1.3647461.1064453.4453125.1367188.8764648.4121094,1.2905273.8261719.7246094.7246094,1.137207,1.4775391,1.2402344,2.2597656.1000977.78125-.0449219,1.5722656-.4375,2.3710938ZM342.4173486,1422.9622271l-9.1005859-9.1005859,2.3710938-2.3710938,9.1005859,9.1005859-2.3710938,2.3710938ZM354.32604,1411.054024l-1.1791992-.7294922c-.0268555.5214844-.112793,1.0234375-.2587891,1.5039062-.1445312.4824219-.3657227.9492188-.6611328,1.4052734-.2963867.4541016-.6791992.9150391-1.1469727,1.3828125-1.4658203,1.4658203-2.96875,2.1933594-4.5097656,2.1796875s-3.1069336-.8154297-4.6958008-2.4042969c-1.0517578-1.0517578-1.7353516-2.1103516-2.0541992-3.1796875-.3168945-1.0673828-.2910156-2.1367188.0800781-3.2050781s1.0639648-2.1103516,2.0795898-3.1269531c.609375-.6083984,1.2543945-1.1113281,1.934082-1.5097656.6796875-.3964844,1.3662109-.6650391,2.0595703-.8017578s1.3642578-.1103516,2.0136719.0800781,1.2563477.5673828,1.8217773,1.1328125l-2.3310547,2.3320312c-.2392578-.2392578-.5063477-.4003906-.8017578-.484375-.2963867-.0839844-.6035156-.0957031-.9204102-.0322266-.3188477.0615234-.6337891.1826172-.9472656.3632812-.3139648.1806641-.6074219.4082031-.8813477.6826172-.40625.40625-.7133789.8183594-.9204102,1.2382812-.2080078.4189453-.3027344.8417969-.284668,1.265625.0175781.4238281.1333008.8447266.3505859,1.2636719.2167969.4208984.5361328.8408203.9609375,1.265625l.5820312.5820312c.5654297.5654297,1.1264648.9501953,1.6831055,1.1533203.5561523.203125,1.1074219.2207031,1.6557617.0537109.546875-.1689453,1.0820312-.5117188,1.6030273-1.0332031.40625-.40625.7080078-.8330078.9072266-1.2783203.1982422-.4462891.2753906-.8808594.2314453-1.3056641-.0449219-.4238281-.2299805-.7988281-.5561523-1.125l-.0664062-.0664062-2.4506836,2.4501953-1.6689453-1.6689453,4.7553711-4.7558594,4.9941406,4.9941406-1.3774414,1.3779297ZM363.9158838,1401.4641803l-7.9609375-.9414062c-.2568359-.0263672-.5102539-.0634766-.762207-.1132812-.2509766-.0478516-.4570312-.0898438-.6162109-.1259766l-.0517578.0810547.4296875.4296875.3642578.3642578,4.4511719,4.4511719-2.1987305,2.1992188-9.1005859-9.1005859,2.1064453-2.1064453,7.5371094.9140625c.1318359.0087891.3154297.0283203.5498047.0595703.2338867.03125.4682617.0673828.7021484.1064453s.4125977.0771484.5361328.1123047l.0537109-.0791016-.5634766-.5634766-.4570312-.4570312-4.2255859-4.2255859,2.1987305-2.1992188,9.1005859,9.1015625-2.0932617,2.0927734ZM368.0223291,1397.3577349l-9.1005859-9.1005859,7.5107422-7.5107422,1.8544922,1.8544922-5.1396484,5.1396484,1.7089844,1.7089844,4.4907227-4.4902344,1.8144531,1.8144531-4.4907227,4.4902344,1.8671875,1.8671875,5.2324219-5.2324219,1.8554688,1.8554688-7.6035156,7.6035156ZM383.2161767,1382.1643756l-4.7163086-1.6962891-2.0795898,2.0791016,3.2060547,3.2070312-2.3710938,2.3710938-9.1005859-9.1015625,5.2851562-5.2851562c.6713867-.6708984,1.3579102-1.1054688,2.0605469-1.3037109.7011719-.2001953,1.3837891-.1923828,2.0454102.0185547.6625977.2119141,1.2636719.5878906,1.8017578,1.1259766.5830078.5830078.9667969,1.2363281,1.1523438,1.9609375s.1635742,1.4570312-.065918,2.1982422l5.4316406,1.7763672-2.6494141,2.6494141Z"/>
        <path d="M29.1105859,1482.4083941c-1.4892578,1.0894775-1.5307007,3.3297119-1.6726685,6.3497314-.0531006,1.1313477-.1096802,2.3348389-.1628418,3.4746094-.0118408,2.2531738-.4591064,3.6516113.9750366,4.5679932,1.2668457.5820312,3.2045288.7005615,4.4190674.085083l.0685425-.0438232c.824646-.5186768.9143066-1.7921143,1-3.6678467.0884399-1.9979248.2078857-4.1580811.2717896-6.0455322.0402222-1.4833984-.0076294-2.6942139-.4584351-3.6176758-.7407837-1.6583252-3.0151367-2.253418-4.4404907-1.1025391Z"/>
        <path d="M183.6689966,1566.2593463l-.0733032-.03125c-.8762207-.3809814-1.9380493.2415771-3.4762573,1.1960449-1.6363525,1.0186768-3.4193115,2.1010742-4.9545898,3.0794678-1.2007446.7769775-2.1356812,1.4759521-2.6157227,2.3428955-.9073486,1.5238037-.0764771,3.6628418,1.6234741,4.1767578,1.7334595.6157227,3.5693359-.626709,6.1157227-2.1984863.9301147-.5758057,1.9168701-1.1861572,2.8521118-1.7652588,2.0928955-1.3452148,3.4366455-1.9294434,2.8001099-3.8114014-.4159546-1.0999756-1.2420044-2.4645996-2.2715454-2.9887695Z"/>
        <path d="M44.1017969,1522.5161822c-3.7879028-.3505859-8.0535889,2.1970215-8.774231,6.0925293-.6017456,2.9355469.8659058,6.4066162,2.3109131,9.0837402,1.1461182,1.8762207,2.2283936,1.3216553,4.362854.37854,2.1329346-.9543457,5.0359497-2.25354,7.1652832-3.206665h-.000061c1.835022-.8775635,2.9801636-1.1444092,3.2011108-2.3444824l.0083618-.0732422c.0870972-1.0245361-.6472168-2.5350342-1.4505615-4.1751709-1.3851318-2.9112549-3.5640869-5.4366455-6.8236694-5.755249Z"/>
        <path d="M171.8153589,1437.5603717c1.5488892.5535889,3.3457642-.564209,3.3953247-2.2335205.1356201-1.6641846-1.3796387-3.0957031-3.3716431-5.0828857-.7462769-.7442627-1.5400391-1.5360107-2.2922363-2.2857666-1.5583496-1.4771729-2.3208008-2.5596924-3.6448975-2.2446289v.0001221c-1.1888428.4355469-2.4523315,1.6816406-2.7576294,2.880127l-.010376.0725098c-.1333008.8684082.6889038,1.7258301,1.9274292,2.958252,2.1330566,1.9022217,4.2730713,4.8883057,6.7540283,5.935791Z"/>
        <path d="M210.7189233,1539.8817828l-.0747681-.0073242-.000061.0001221c-.8970337-.1815186-2.2639771,1.2714844-3.3417358,2.3763428-1.8013306,2.0281982-4.2596436,3.704834-4.916687,6.1052246-.3604736,1.6090088.836731,3.3074951,2.5152588,3.3706055,2.3005981.3299561,5.0808716-3.3962402,7.0913696-5.2738037,1.2857666-1.3048096,2.2144165-2.2740479,2.0774536-3.2077637-.3259277-1.4372559-1.9816284-3.0323486-3.3508301-3.3634033Z"/>
      </g>
      <path d="M368.6458642,1612.9905474c.2905273.1191406.5444336.2275391.7617188.3203125l2.6245117,1.1708984.3051758-3.4912109-2.7861328.6787109c-.1411133.0390625-.3168945.0810547-.5288086.1328125-.2109375.0507812-.434082.0996094-.6704102.1474609-.2363281.0488281-.4750977.09375-.7172852.1357422-.2416992.0410156-.4526367.0849609-.6318359.1328125l-.0112305.1298828c.2319336.0703125.4931641.1660156.7827148.2851562.2910156.1191406.581543.2382812.871582.3574219Z"/>
      <path d="M383.79479,1494.2210162c-.2631836-.2861328-.6010742-.5107422-1.0136719-.671875-.4116211-.1621094-.8916016-.265625-1.4394531-.3134766l-.7836914-.0683594c-.5595703-.0488281-1.0561523-.0302734-1.4907227.0576172-.4335938.0869141-.8046875.2490234-1.1142578.484375-.309082.2373047-.5551758.5410156-.7382812.9140625-.1831055.3710938-.296875.8203125-.3427734,1.3417969l-.1733398,1.9794922,7.5957031.6640625.1733398-1.9794922c.0458984-.5214844.0102539-.9824219-.1054688-1.3808594-.1152344-.3984375-.3046875-.7412109-.5673828-1.0273438Z"/>
      <path d="M352.2073877,1519.4192584c-.2631836-.2851562-.6010742-.5087891-1.0131836-.6708984-.4121094-.1611328-.8920898-.265625-1.4399414-.3134766l-.7836914-.0683594c-.5595703-.0498047-1.0561523-.0302734-1.4902344.0566406-.434082.0888672-.8051758.25-1.1147461.4853516-.3085938.2373047-.5551758.5419922-.7382812.9140625-.1826172.3720703-.296875.8203125-.3427734,1.3427734l-.1733398,1.9785156,7.5957031.6640625.1733398-1.9785156c.0458984-.5224609.0102539-.9833984-.1054688-1.3818359-.1152344-.3974609-.3046875-.7412109-.5673828-1.0283203Z"/>
      <path d="M412.0848291,1506.6995318c-.2626953-.2861328-.6010742-.5097656-1.0126953-.6708984-.4121094-.1611328-.8920898-.2666016-1.4399414-.3144531l-.7836914-.0683594c-.5595703-.0488281-1.0566406-.0292969-1.4902344.0576172-.434082.0878906-.8051758.2490234-1.1147461.4853516-.309082.2363281-.5551758.5400391-.7382812.9130859-.1831055.3720703-.296875.8203125-.3427734,1.3427734l-.1728516,1.9785156,7.5957031.6640625.1728516-1.9785156c.0458984-.5224609.0102539-.9833984-.1054688-1.3818359s-.3046875-.7402344-.5678711-1.0273438Z"/>
      <path d="M376.3924463,1524.4417193c.2910156.1181641.5444336.2265625.7617188.3203125l2.6245117,1.1699219.3051758-3.4902344-2.7861328.6777344c-.1411133.0390625-.3168945.0820312-.5283203.1337891-.2114258.0498047-.4345703.0986328-.6708984.1474609-.2363281.0478516-.4750977.0927734-.7167969.1347656-.2421875.0419922-.453125.0849609-.6323242.1328125l-.0112305.1308594c.2319336.0703125.4931641.1650391.7827148.2841797.2910156.1201172.581543.2382812.871582.3583984Z"/>
      <path d="M405.1937158,1587.1907428c-.2866211-.3066406-.6479492-.5478516-1.0839844-.7246094-.4360352-.1757812-.9331055-.2880859-1.4931641-.3369141l-.8217773-.0722656c-.5717773-.0498047-1.0878906-.0263672-1.5483398.0712891-.4594727.0986328-.8569336.2734375-1.1928711.5253906-.3349609.2529297-.6015625.578125-.7998047.9746094-.1972656.3955078-.3198242.8613281-.3666992,1.3964844-.0478516.5478516-.0087891,1.0332031.1171875,1.4589844.1259766.4238281.3325195.7871094.6191406,1.0878906.2875977.3017578.6489258.5400391,1.0844727.7148438.4360352.1767578.9404297.2900391,1.512207.3398438l.8217773.0722656c.5600586.0488281,1.0693359.0244141,1.5292969-.0742188.4599609-.0966797.8574219-.2685547,1.1923828-.515625.3349609-.2460938.6010742-.5683594.7988281-.9638672.1972656-.3974609.3203125-.8691406.3681641-1.4160156.046875-.5351562.0073242-1.015625-.1186523-1.4394531-.1254883-.4248047-.331543-.7910156-.6181641-1.0986328Z"/>
      <path d="M377.4402978,1507.0911334c-.3359375-.0292969-.6274414.0078125-.8745117.1123047-.2470703.1035156-.4458008.2607422-.5961914.4746094-.1503906.2119141-.2397461.4794922-.2680664.8027344l-.3017578,3.453125,3.284668.2871094.3017578-3.453125c.0405273-.4599609-.0795898-.8427734-.3598633-1.1503906-.2807617-.3056641-.675293-.4814453-1.1860352-.5263672Z"/>
      <path d="M370.9139306,1587.069649c.2905273.1181641.5444336.2265625.7612305.3203125l2.6245117,1.1699219.3051758-3.4902344-2.7856445.6777344c-.1416016.0390625-.3173828.0820312-.5288086.1337891-.2114258.0498047-.4345703.0986328-.6708984.1474609-.2358398.0488281-.4750977.0927734-.7167969.1347656s-.4526367.0859375-.6323242.1328125l-.0112305.1308594c.2319336.0703125.4931641.1650391.7827148.2841797.2910156.1201172.581543.2382812.8720703.3583984Z"/>
      <path d="M343.5779931,1559.5842974c-.3730469-.0332031-.6826172,0-.9296875.0976562-.246582.0976562-.4453125.2578125-.597168.4824219-.1508789.2265625-.2426758.5185547-.2739258.8798828l-.25,2.8554688,3.3217773.2900391.25-2.8554688c.0454102-.5234375-.065918-.9335938-.3339844-1.2324219-.2685547-.2988281-.6645508-.4726562-1.1870117-.5175781Z"/>
      <path d="M346.2679346,1587.3108599c-.2631836-.2851562-.6010742-.5097656-1.0131836-.6708984-.4121094-.1621094-.8920898-.265625-1.4399414-.3134766l-.7836914-.0683594c-.5595703-.0498047-1.0561523-.03125-1.4902344.0566406s-.8051758.25-1.1147461.4853516c-.3085938.2373047-.5551758.5410156-.7382812.9140625-.1826172.3710938-.296875.8193359-.3427734,1.3417969l-.1728516,1.9794922,7.5957031.6640625.1728516-1.9794922c.0458984-.5224609.0102539-.9833984-.1054688-1.3808594-.1152344-.3984375-.3046875-.7412109-.5673828-1.0283203Z"/>
      <path d="M414.7610986,1416.3518756c-.3359375-.0292969-.6274414.0078125-.8745117.1123047-.2475586.1035156-.4462891.2607422-.5966797.4746094-.1499023.2119141-.2392578.4794922-.2675781.8027344l-.3022461,3.453125,3.284668.2880859.3022461-3.453125c.0400391-.4599609-.0795898-.84375-.3603516-1.1503906-.2802734-.3066406-.675293-.4824219-1.1855469-.5273438Z"/>
      <g>
        <path d="M394.6512353,1401.2444537l-183.3757324,183.3759766c-74.2746582,74.2744141-27.9772949,201.4755859,76.6630859,210.6303711h.0004883c68.0356445,5.9521484,128.0146484-44.3764648,133.967041-112.4121094l22.6020508-258.3452148c2.3818359-27.2236328-30.5334473-42.5722656-49.8569336-23.2490234ZM393.0555322,1614.1575396c.1015625-1.15625.3876953-2.1660156.8579102-3.0273438.4692383-.8603516,1.1162109-1.5107422,1.9375-1.9462891.8217773-.4365234,1.8110352-.6035156,2.9682617-.5019531l-.2861328,3.2666016c-.546875-.0478516-1.0263672.0195312-1.4375.2021484-.4106445.1845703-.7387695.4619141-.9848633.8359375-.2456055.3730469-.3930664.8398438-.4423828,1.3994141-.0610352.6972656.0327148,1.2822266.2792969,1.7539062.2470703.4746094.6289062.8398438,1.1450195,1.0986328.5166016.2587891,1.1542969.4199219,1.9135742.4863281l.8398438.0732422c.7587891.0664062,1.4174805.0185547,1.9780273-.1455078.5585938-.1650391.9980469-.4550781,1.3168945-.8730469.3183594-.4169922.5083008-.9746094.5693359-1.6699219.0522461-.5976562-.0024414-1.1132812-.1655273-1.5478516-.1625977-.4335938-.4301758-.7773438-.8032227-1.0292969s-.8325195-.4023438-1.3803711-.4501953l.2758789-3.1542969c1.1572266.1015625,2.1000977.4316406,2.8276367.9912109.7285156.5585938,1.2475586,1.2998047,1.5546875,2.2226562.3081055.9238281.4091797,1.9833984.3046875,3.1767578-.1206055,1.3808594-.4624023,2.5332031-1.0258789,3.4541016-.5629883.9238281-1.3583984,1.5908203-2.3847656,2.0019531-1.0258789.4121094-2.2919922.5517578-3.7978516.4199219-2.2138672-.1933594-3.8232422-.8955078-4.8266602-2.1054688-1.0039062-1.2089844-1.4150391-2.8535156-1.2333984-4.9316406ZM375.9554346,1476.3469928l2.612793.2285156-.6333008,7.2412109,2.4072266.2109375.5532227-6.3261719,2.5566406.2226562-.5532227,6.3261719,2.6318359.2304688.6445312-7.3710938,2.6123047.2285156-.9370117,10.7119141-12.8208008-1.1210938.9257812-10.5820312ZM374.2625635,1495.7005084c.121582-1.3935547.4550781-2.5527344.9995117-3.4765625.5449219-.9238281,1.309082-1.5966797,2.2924805-2.0185547s2.2089844-.5683594,3.6767578-.4404297c1.4560547.1279297,2.6376953.484375,3.5454102,1.0722656.9077148.5869141,1.5498047,1.3828125,1.925293,2.3867188.3759766,1.0058594.5029297,2.2041016.3813477,3.5976562l-.46875,5.3554688-12.8208008-1.1210938.46875-5.3554688ZM373.2205713,1507.6057818c.0830078-.9443359.3291016-1.7197266.7392578-2.3242188.4106445-.6025391.9375-1.0351562,1.5810547-1.2988281.6435547-.2646484,1.3447266-.3623047,2.1035156-.2958984.8208008.0712891,1.5356445.3261719,2.1430664.7607422.6079102.4355469,1.0620117,1.0107422,1.3623047,1.7275391l5.3017578-2.1328125-.3266602,3.7333984-4.7021484,1.7324219-.2563477,2.9306641,4.5161133.3945312-.2924805,3.3398438-12.8208008-1.1210938.6513672-7.4462891ZM372.0140283,1521.397774l13.2421875-3.6933594-.3120117,3.5644531-2.2875977.5703125-.4472656,5.1132812,2.1538086.9599609-.300293,3.4345703-12.3994141-5.9375.3505859-4.0117188ZM370.3470361,1537.8753131c.0751953-.859375.2456055-1.6591797.5112305-2.4013672.2651367-.7412109.6196289-1.3867188,1.0625-1.9375s.9746094-.9619141,1.5932617-1.2333984c.6201172-.2714844,1.3276367-.3730469,2.1235352-.3037109l-.2875977,3.2841797c-.3354492-.0292969-.6435547.0195312-.9248047.1445312-.2802734.1269531-.5224609.3154297-.7260742.5673828s-.3676758.5488281-.4916992.8876953c-.1240234.3408203-.2026367.7041016-.2363281,1.0888672-.0498047.5732422-.0195312,1.0859375.0913086,1.5410156.1103516.4541016.3085938.8388672.5947266,1.1523438s.6464844.5615234,1.0825195.7431641c.4350586.1826172.9511719.2998047,1.5478516.3515625l.8217773.0722656c.7963867.0693359,1.4726562.0039062,2.0292969-.1982422.5571289-.2021484.9912109-.5449219,1.3027344-1.0253906.3120117-.4804688.4995117-1.0869141.5634766-1.8212891.050293-.5722656.0087891-1.0917969-.1264648-1.5615234-.1347656-.4707031-.3549805-.8525391-.6611328-1.1494141-.3061523-.2958984-.6889648-.4648438-1.1499023-.5048828l-.0932617-.0078125-.3022461,3.453125-2.3515625-.2060547.5864258-6.7001953,7.0356445.6152344-.1699219,1.9414062-1.3710938.1992188c.3144531.4169922.5708008.8554688.7685547,1.3173828.1972656.4638672.3291016.9638672.3950195,1.5019531.0654297.5390625.0693359,1.1367188.0117188,1.796875-.1811523,2.0654297-.8652344,3.5888672-2.0546875,4.5683594-1.1879883.9804688-2.902832,1.3730469-5.1425781,1.1767578-1.4799805-.1289062-2.6850586-.5009766-3.6162109-1.1152344-.9301758-.6142578-1.5966797-1.4492188-1.9995117-2.5068359-.402832-1.0566406-.5419922-2.3007812-.4165039-3.7304688ZM377.3543603,1546.9866412l-.4130859,4.7226562-2.5566406-.2246094.4130859-4.7216797,2.5566406.2236328ZM369.3123681,1552.2815631l2.7431641.2402344-.3642578,4.1621094,10.0776367.8808594-.2919922,3.3408203-10.0776367-.8818359-.3642578,4.1621094-2.7431641-.2392578,1.0205078-11.6650391ZM367.3499658,1574.7141803l6.3613281-4.1455078c.1069336-.078125.2602539-.1796875.4599609-.3066406.1982422-.1269531.4008789-.2509766.6054688-.3710938.2055664-.1201172.3657227-.2060547.4833984-.2578125l-.0102539-.0957031c-.2739258-.0244141-.5380859-.046875-.793457-.0693359-.2548828-.0224609-.4692383-.0410156-.644043-.0566406l-5.953125-.5205078.2709961-3.0976562,12.8208008,1.1210938-.2578125,2.9492188-6.703125,4.3974609c-.2128906.1435547-.4316406.2773438-.6557617.4023438-.2241211.1240234-.4077148.2255859-.5527344.2998047l.0102539.0947266c.1992188.0175781.4013672.0351562.6064453.0537109.2055664.0175781.3764648.0322266.5131836.0449219l6.2705078.5478516-.2709961,3.0976562-12.8208008-1.1210938.2597656-2.9667969ZM366.5350244,1584.0257037l13.2421875-3.6933594-.3115234,3.5644531-2.2880859.5703125-.4472656,5.1132812,2.1538086.9599609-.300293,3.4345703-12.3994141-5.9375.3505859-4.0117188ZM364.9661767,1601.960274l7.4467773-1.71875c.1542969-.0361328.3549805-.0810547.6040039-.1347656.2490234-.0527344.5048828-.1083984.7670898-.1669922.2617188-.0585938.4951172-.1054688.6982422-.1367188l.0112305-.1308594c-.1811523-.0791016-.3901367-.1621094-.6269531-.2519531-.2358398-.0898438-.4726562-.1826172-.7084961-.2783203-.2363281-.0966797-.4394531-.1767578-.6088867-.2421875l-7.0541992-2.9853516.3022461-3.453125,12.4194336,5.7119141-.3398438,3.8818359-13.2241211,3.4882812.3134766-3.5830078ZM364.2674463,1609.9475787l13.2421875-3.6933594-.3120117,3.5644531-2.2875977.5703125-.4472656,5.1132812,2.1538086.9599609-.300293,3.4335938-12.3999023-5.9365234.3510742-4.0117188ZM346.8026025,1473.7219928l2.7426758.2392578-.3637695,4.1611328,10.0776367.8818359-.2924805,3.3408203-10.0776367-.8818359-.3637695,4.1621094-2.7431641-.2392578,1.0205078-11.6640625ZM344.8402002,1496.1536334l6.3608398-4.1455078c.1074219-.078125.2602539-.1796875.4599609-.3076172.1987305-.1259766.4013672-.2490234.6054688-.3701172.2055664-.1191406.3666992-.2060547.4838867-.2587891l-.0102539-.09375c-.2744141-.0244141-.5380859-.0478516-.7939453-.0693359-.2548828-.0224609-.46875-.0410156-.6435547-.0566406l-5.953125-.5205078.2714844-3.0976562,12.8203125,1.1210938-.2583008,2.9482422-6.703125,4.3964844c-.2128906.1445312-.4311523.2792969-.6557617.4033203-.2236328.125-.4077148.2255859-.5527344.2998047l.0107422.0947266c.199707.0175781.4013672.0351562.6064453.0527344.2055664.0185547.3764648.0332031.5131836.0449219l6.2705078.5488281-.2709961,3.0976562-12.8203125-1.1210938.2592773-2.9667969ZM344.3685205,1501.5471881l2.6123047.2285156-.6333008,7.2402344,2.4072266.2099609.5532227-6.3261719,2.5566406.2236328-.5532227,6.3261719,2.6318359.2304688.6445312-7.3710938,2.6123047.2285156-.9370117,10.7119141-12.8203125-1.1210938.9257812-10.5810547ZM342.6756494,1520.8997271c.121582-1.3925781.4550781-2.5527344.9990234-3.4765625.5454102-.9228516,1.3085938-1.5966797,2.2924805-2.0185547.9833984-.421875,2.2089844-.5693359,3.6772461-.4404297,1.4555664.1269531,2.637207.484375,3.5449219,1.0732422.9082031.5869141,1.5498047,1.3828125,1.925293,2.3867188.3764648,1.0039062.5029297,2.2041016.3813477,3.5966797l-.46875,5.3554688-12.8203125-1.1210938.46875-5.3554688ZM341.1815088,1537.9739459l6.3608398-4.1445312c.1074219-.078125.2602539-.1806641.4599609-.3076172.1987305-.1269531.4013672-.25.6054688-.3701172.2055664-.1201172.3666992-.2070312.4838867-.2587891l-.0102539-.0947266c-.2739258-.0244141-.5380859-.0478516-.793457-.0693359-.2548828-.0224609-.4692383-.0410156-.644043-.0566406l-5.9526367-.5205078.2709961-3.0976562,12.8203125,1.1210938-.2583008,2.9492188-6.703125,4.3955078c-.2128906.1445312-.4311523.2792969-.6557617.4042969-.2236328.1240234-.4077148.2255859-.5522461.2988281l.0102539.0957031c.199707.0175781.4013672.0351562.6064453.0527344.2055664.0185547.3764648.0332031.5131836.0449219l6.2705078.5488281-.2709961,3.0976562-12.8203125-1.1210938.2592773-2.9677734ZM340.7098291,1543.3675006l2.6123047.2285156-.6333008,7.2412109,2.4072266.2099609.5532227-6.3261719,2.5566406.2236328-.5532227,6.3261719,2.6318359.2304688.6450195-7.3710938,2.6123047.2285156-.9375,10.7119141-12.8203125-1.1210938.9257812-10.5820312ZM339.2586572,1559.9583209c.0761719-.8701172.3178711-1.5986328.7260742-2.1835938.4086914-.5849609.9418945-1.0146484,1.5986328-1.2890625.6572266-.2744141,1.4086914-.3740234,2.2548828-.3007812.8710938.0761719,1.6083984.3125,2.2133789.7109375.6044922.3974609,1.0566406.9257812,1.355957,1.5849609.300293.6582031.4111328,1.4238281.3349609,2.2949219l-.3183594,3.6396484,4.3295898.3789062-.2919922,3.3398438-12.8203125-1.1210938.6171875-7.0546875ZM338.4290674,1569.4378131l2.6123047.2285156-.6333008,7.2412109,2.4072266.2099609.5532227-6.3261719,2.5566406.2236328-.5532227,6.3261719,2.6318359.2304688.6445312-7.3710938,2.6123047.2285156-.9370117,10.7119141-12.8203125-1.1210938.9257812-10.5820312ZM336.7361963,1588.7913287c.121582-1.3935547.4550781-2.5527344.9990234-3.4775391.5454102-.9228516,1.309082-1.5966797,2.2924805-2.0185547.9833984-.4208984,2.2089844-.5683594,3.6772461-.4394531,1.4555664.1269531,2.637207.484375,3.5449219,1.0722656.9082031.5869141,1.5498047,1.3828125,1.925293,2.3867188.3764648,1.0048828.5029297,2.2041016.3813477,3.5976562l-.46875,5.3554688-12.8203125-1.1210938.46875-5.3554688ZM335.2420556,1605.866524l6.3608398-4.1455078c.1074219-.078125.2602539-.1796875.4599609-.3076172.1987305-.1259766.4013672-.25.6054688-.3701172.2055664-.1191406.3666992-.2060547.4838867-.2587891l-.0102539-.09375c-.2739258-.0244141-.5380859-.0478516-.793457-.0693359-.2548828-.0224609-.4692383-.0410156-.644043-.0566406l-5.9526367-.5205078.2709961-3.0976562,12.8203125,1.1210938-.2583008,2.9482422-6.703125,4.3964844c-.2128906.1445312-.4311523.2792969-.6557617.4033203-.2236328.1240234-.4077148.2255859-.5522461.2998047l.0102539.0947266c.199707.0175781.4013672.0351562.6064453.0527344.2055664.0185547.3764648.0332031.5131836.0449219l6.2705078.5488281-.2709961,3.0976562-12.8203125-1.1210938.2592773-2.9667969ZM334.7376611,1611.6331256l12.8203125,1.1210938-.2919922,3.3398438-12.8203125-1.1210938.2919922-3.3398438ZM227.786001,1601.3338092c5.1271973-3.1137695,10.5021973-6.3598633,15.6809082-9.4985352,2.53125-1.5297852,4.5620117-2.7646484,6.6340332-4.0170898,1.394043-.796875,3.0795898-2.1088867,3.9135742-1.5629883,1.5559082.9931641,2.9814453,3.5996094,3.1323242,5.1538086-.161377,1.878418-2.2253418,2.3476562-4.4794922,3.8984375-2.4936523,1.5087891-5.2568359,3.1835938-7.7578125,4.6972656-1.420166.9365234-2.9768066,1.5732422-4.0693359,2.8129883-1.3056641,1.6967773.0996094,3.644043,2.6374512,2.6171875,3.0976562-1.5410156,6.282959-3.7470703,9.2697754-5.4692383,2.0314941-1.0678711,3.2314453-2.4755859,5.0366211-1.6704102,1.4538574.934082,2.7980957,3.2983398,2.5336914,4.7519531-.2597656,1.0224609-1.1650391,1.5371094-2.0539551,2.1337891-1.5510254.9643555-3.2805176,1.9931641-4.9455566,3.0068359-2.0400391,1.2563477-4.0993652,2.4311523-5.4189453,3.3359375-1.9499512,1.3139648-1.9228516,2.9614258-.9726562,3.7734375,1.1433105,1.1376953,3.4304199-.222168,4.704834-1.0644531,3.6542969-2.2011719,9.4240723-5.7294922,12.2946777-7.4262695.5483398-.300293,1.1115723-.6010742,1.675293-.6704102,1.5759277-.1323242,2.4667969,1.637207,3.2341309,2.8300781.6245117,1.1689453,1.5004883,2.5913086.3864746,3.5537109-5.2148438,3.4448242-21.1064453,12.8022461-25.7177734,15.6689453-.5229492.2958984-1.0429688.625-1.550293.5283203l-.0327148-.0092773c-.6640625-.0546875-2.2805176-3.2294922-3.1201172-4.4926758-2.6450195-4.3671875-6.0500488-9.9648438-8.8098145-14.5185547-1.1157227-1.8442383-2.1665039-3.5498047-3.2189941-5.3222656-.9875488-1.6796875-.7978516-1.9287109,1.0136719-3.0405273ZM200.9346826,1637.0838092c3.1652832-4.8935547,13.6130371-21.0522461,18.4782715-28.5317383.8305664-1.5297852,2.0998535-.8369141,3.2792969-.1171875,2.7387695,1.7529297,5.291748,3.0019531,2.9350586,6.3198242-1.1350098,1.8862305-3.1943359,4.7807617-4.1704102,6.6557617-.8833008,1.4985352.1533203,2.328125,1.3376465,3.0888672,3.3842773,2.262207,11.2280273,7.4023438,14.3762207,9.5244141.5.3588867.9953613.7172852,1.2456055,1.2084961.3986816,1.1147461-.2983398,1.8842773-.9685059,3.1098633-1.0871582,1.590332-2.791748,4.8212891-4.1777344,5.7192383l-.0539551.0268555c-.8334961.3701172-1.6184082-.2480469-2.3588867-.684082-3.9621582-2.4897461-11.4033203-7.7700195-15.5776367-10.1333008-1.7451172-.6484375-2.6306152,1.824707-3.7355957,3.2685547-.8337402,1.2773438-1.7717285,2.7587891-2.5407715,3.8989258-1.3823242,2.1289062-2.4602051,2.6958008-4.5444336,1.4956055-1.2612305-.706543-2.6835938-1.6875-3.4370117-2.3867188-.9562988-.8168945-.6831055-1.5878906-.0871582-2.4633789ZM194.0233056,1673.0603717c1.170166-7.7407227,2.5361328-16.5493164,3.6943359-24.1499023.3417969-2.0229492.3376465-3.2700195,1.2436523-3.6625977,1.5581055-.4638672,4.4902344-.0385742,5.9111328.9350586.7487793.6313477.6403809,1.6411133.5429688,2.5615234-.4519043,3.2348633-1.512207,9.8442383-2.0195312,13.3510742-.1152344.9262695-.2460938,1.9819336.3288574,2.7250977,1.0283203,1.2568359,3.3671875,1.3520508,4.2092285-.2216797.5908203-1.0273438.8305664-3.824707,1.1831055-5.855957.3286133-2.1235352.6625977-4.3686523.9272461-6.0131836.3349609-2.140625.7802734-3.1201172,2.463623-3.2080078,1.5310059-.0039062,3.7595215.1425781,4.8181152,1.3740234.4885254.706543.3713379,1.6567383.2807617,2.5131836-.4042969,2.9926758-1.3254395,8.4731445-1.6713867,11.2148438-.1875,1.1938477.012207,2.4799805,1.2993164,2.8608398,1.472168.6025391,4.5808105.7294922,6.2421875,1.3720703.5683594.2197266,1.0805664.5600586,1.3413086,1.1147461.5444336,1.347168.1147461,2.8759766-.0561523,4.3544922-.2487793,1.4741211-.4458008,3.5727539-1.0405273,4.6308594l-.03125.0473633c-.5332031,1.1264648-3.6982422.0810547-5.2858887-.0366211-5.8435059-.8979492-12.8249512-1.9609375-18.7990723-2.8774414-1.3535156-.2070312-2.5852051-.3911133-3.8564453-.5961914-1.8583984-.3037109-2.0002441-.5327148-1.7255859-2.4335938ZM197.6544092,1699.6931842c-.2978516-1.1010742-.6481934-2.746582-.9897461-4.2514648-.2526855-1.1381836-.4736328-2.1381836-.5576172-2.8579102-.2546387-1.5927734.5236816-1.8359375,1.6950684-2.1054688,5.1022949-1.1855469,21.559082-5.0107422,26.2971191-6.0942383.5834961-.1103516,1.1501465-.2460938,1.5900879.1181641.309082.2631836.5319824.800293.763916,1.6279297.345459,1.2597656.78125,3.3237305,1.1647949,5.0161133.3242188,1.4833984.5463867,2.5722656.4328613,3.1767578l-.0107422.0541992c-.092041.4824219-.4780273.7109375-.9216309.8540039-7.4602051,1.8027344-21.8842773,5.1225586-27.4460449,6.3764648-1.3320312.2924805-1.6657715-.6025391-2.0180664-1.9145508ZM223.1912744,1745.1873248c-1.4562988-1.9428711-3.5446777-4.6943359-5.2302246-6.9428711-2.0759277-2.7568359-4.1853027-5.5566406-6.2475586-8.2958984-3.8188477-4.7524414-6.8728027-9.3701172-4.0288086-15.0517578,1.5927734-3.0283203,4.7226562-5.2739258,8.1325684-5.6933594,1.967041-.2451172,3.6650391.1088867,4.9133301-.640625,2.4963379-1.7958984,3.1914062-5.6435547,4.675293-8.1396484,1.1259766-2.1982422,1.9177246-1.3427734,3.2741699.3417969,1.0136719,1.3120117,2.3911133,3.1186523,3.3752441,4.5014648.9553223,1.300293,1.5864258,2.7368164,1.0349121,4.3007812-.7023926,2.7958984-3.9760742,6.1201172-2.6335449,9.2529297.9885254,1.8378906,2.5495605,4.4155273,4.4602051,5.2553711,2.4206543.5878906,4.8781738-3.0517578,7.0029297-3.4082031,1.9853516-.3256836,3.0253906,1.8637695,4.171875,3.1933594.9042969,1.2456055,2.3085938,2.8852539,2.6669922,4.0756836l.0126953.0556641c.2211914.9804688-.7734375,1.5053711-2.3908691,2.7910156-6.2897949,4.7954102-16.3337402,12.6723633-20.5654297,15.78125-1.2402344.8300781-1.7402344-.3134766-2.6237793-1.3769531ZM279.8448388,1744.3259967c-3.0214844,6.4482422-9.911377,20.5219727-11.947998,24.7397461-.7055664,1.6391602-1.614502,1.3046875-3.0214844.6420898-1.9321289-.90625-5.7895508-2.800293-8.3237305-4.0234375-6.439209-3.2080078-10.8532715-4.8217773-14.7207031-10.3989258-5.8242188-8.394043.6577148-21.7797852,10.8447266-22.3994141,5.3447266-.5009766,10.1835938,1.6582031,14.901123,3.9731445,2.2443848,1.0883789,5.6066895,2.7197266,8.2775879,4.0161133,1.4648438.7290039,3.8251953,1.7739258,4.0112305,2.2875977l.0222168.0366211c.2058105.3564453.0969238.7495117-.0429688,1.1264648ZM277.4273584,1611.4304889c-1.5205078-.1577148-3.6682129-.2094727-4.7868652-.7250977l-.0495605-.0268555c-.7939453-.4399414-.6220703-1.3339844-.4929199-3.0083008.6176758-7.2089844,1.7316895-20.1816406,2.1379395-24.8037109.0893555-2.0908203.8967285-1.9604492,2.8808594-1.7924805,5.1691895.4458008,11.4204102.9780273,16.7661133,1.440918,5.5095215.5888672,10.6137695.1347656,14.2919922,4.2919922,3.0671387,3.5478516,2.9431152,9.2841797-.0488281,12.8442383-1.2038574,1.4707031-2.4401855,2.4316406-2.496582,3.9389648-.0288086,2.0078125,1.1430664,3.8959961,1.8991699,5.7490234,1.0124512,2.6118164,2.9472656,5.0302734-1.4313965,4.5429688-1.6450195-.1210938-3.8979492-.3022461-5.5756836-.4912109-1.5822754-.1572266-3.0632324-.6162109-3.8571777-2.0473633-1.6088867-2.4223633-1.8901367-6.8969727-5.0366211-7.9082031-2.0424805-.4829102-4.9311523-1.0307617-6.8579102-.1982422-2.0476074,1.3398438-1.0336914,5.4970703-2.1938477,7.2607422-1.1088867,1.6499023-3.4008789.965332-5.1486816.9326172ZM326.4637353,1771.2664264c-1.3273926.1469727-3.1491699.3149414-5.0239258.5019531-2.6828613.0839844-6.3764648,1.1303711-8.4321289.1479492-.8967285-.5107422-1.5366211-1.7329102-2.2993164-3.3945312-1.5148926-3.2749023-2.9072266-6.6972656-4.3583984-9.8583984-1.3217773-2.6357422-2.0400391-.9042969-2.6728516,2.3027344-.7724609,3.3168945-1.6206055,7.8168945-2.6079102,10.7392578-.592041,1.956543-2.5483398,2.3354492-4.3466797,2.4765625-2.6394043.269043-6.6542969.6621094-9.1137695.8920898-1.0510254.0371094-2.2922363.3408203-3.1572266-.2607422-.7746582-.5566406-.7453613-4.2124023-.9963379-5.8935547-.5402832-7.7182617-2.0532227-17.6660156-1.9714355-23.1894531.6101074-1.5849609,3.9182129-1.3212891,5.5881348-1.6240234,2.4152832-.2211914,4.907959-.5234375,5.2412109,2.4926758.4602051,3.1376953.7438965,7.3862305,1.0795898,10.7436523.095459,1.1005859.3222656,5.140625.9509277,4.7739258.4802246-.2138672,1.1914062-3.5532227,1.6137695-5.3334961.9797363-3.53125,1.8481445-8.3774414,3.2314453-11.9545898,1.1906738-2.4145508,3.9987793-2.2568359,6.5683594-2.5058594.8852539-.0307617,1.8181152-.0112305,2.6220703.3212891,2.3242188,1.1791992,2.9545898,4.3642578,4.1933594,6.5625,1.611084,3.3466797,2.989502,6.5976562,4.4143066,9.5097656.25.3955078.5029297,1.0048828.8625488,1.0820312.4870605.0107422.2438965-2.5292969-.0170898-4.9257812-.3056641-3.1743164-.6418457-6.4223633-.9047852-9.6191406-.2441406-2.6020508.2880859-3.8208008,2.4528809-4.2099609,1.9101562-.3105469,4.8422852-.7573242,6.5471191-.3740234l.0566406.0195312c1.0068359.3457031.9938965,1.4599609,1.2016602,3.4775391.6916504,7.8515625,2.0002441,19.9814453,2.3339844,25.2817383-.0297852,1.6743164-1.4824219,1.5727539-3.0561523,1.8183594ZM363.3502099,1749.6360553c-4.2636719,4.5263672-9.6486816,8.4228516-15.7275391,9.8349609-2.2956543.5112305-5.1923828.2138672-7.0029297-1.0966797-2.7912598-2.1494141,1.4145508-4.8139648,3.223877-5.9384766,2.2719727-1.4882812,4.7443848-1.4404297,7.2197266-2.1269531,1.7956543-.5498047,3.5625-1.7407227,4.6589355-3.2485352.671875-.909668,1.0617676-2.1884766-.282959-2.4262695-2.9560547-.1503906-6.9992676,3.0253906-9.9602051,4.2089844-3.7602539,1.7680664-8.4772949,3.3046875-12.2453613.8681641-2.1477051-1.3789062-3.5812988-3.8203125-3.8544922-6.3486328-.5336914-5.7841797,4.5073242-10.6538086,8.8681641-13.8974609l.0974121-.0717773c5.3898926-3.7602539,13.6013184-9.0908203,19.6762695-4.0825195,2.46875,2.6030273-3.2365723,5.8442383-5.3095703,6.6743164-2.1896973.8110352-3.9609375.2451172-6.2727051.9882812-1.0710449.34375-2.0708008.9194336-3,1.5625-1.1877441.7993164-4.5893555,3.65625-2.6113281,4.8276367.8618164.3735352,2.6621094-.15625,4.3393555-1.0170898,4.3713379-2.1918945,9.0117188-5.1772461,14.0380859-5.0844727,3.2741699.0249023,6.3549805,2.0991211,7.4960938,5.1777344,1.5869141,4.0078125-.6660156,8.2265625-3.3508301,11.1962891ZM382.1522119,1730.4309771c-1.1462402,1.3071289-2.3085938,3.9936523-3.8989258,2.9458008-4.6484375-3.3149414-18.2294922-13.5161133-22.5554199-16.7016602-.4665527-.3774414-.9414062-.7246094-.954834-1.3012695-.0036621-.4101562.2558594-.9335938.7290039-1.6538086.7248535-1.0908203,1.9980469-2.7773438,3.0249023-4.1811523.9082031-1.2207031,1.5849609-2.1044922,2.1164551-2.4130859l.0478516-.0273438c.4274902-.2460938.8535156-.0961914,1.2504883.1499023,6.2895508,4.6884766,19.4404297,14.1557617,23.3051758,17.4204102.935791,1.2128906-2.1745605,4.2700195-3.0646973,5.762207ZM403.9739892,1682.5637896c-.748291,2.2763672-1.7927246,5.5205078-2.6582031,8.1547852-1.0563965,3.237793-2.1286621,6.5263672-3.1782227,9.7426758-1.6801758,5.7739258-3.7001953,10.859375-9.9182129,11.7114258-3.3745117.394043-6.9677734-.9121094-9.2399902-3.4541016-1.3168945-1.46875-1.9946289-3.0532227-3.3127441-3.652832-2.8640137-1.0327148-6.390625.5507812-9.2592773.737793-2.4182129.3100586-2.1811523-.8095703-1.5834961-2.8642578.2670898-.8881836.6237793-1.9541016.9609375-2.9941406.776123-2.1738281,1.2004395-4.8491211,3.6726074-5.5317383,2.6635742-.9921875,7.2148438-.1733398,9.0014648-3.0273438.9309082-1.8378906,2.1323242-4.5600586,1.7272949-6.5820312-.8984375-2.3051758-5.2473145-2.2749023-6.7443848-3.8100586-1.3891602-1.4277344-.2124023-3.5092773.21875-5.1933594.4960938-1.434082,1.0273438-3.4975586,1.7893066-4.4575195l.0383301-.0410156c.6694336-.7294922,1.6606445-.2114258,3.6225586.3896484,7.4643555,2.4521484,19.5625,6.2446289,24.4887695,7.9599609,1.373291.543457.7387695,1.5908203.3745117,2.9121094ZM406.3099267,1642.3342974c-.3598633,4.519043-1.0788574,13.5454102-1.4155273,17.7666016-.1401367,3.8618164-1.1999512,8.0532227-4.5778809,10.3637695-4.1228027,2.9375-10.9541016,2.262207-14.3225098-1.6962891-4.1945801-4.9248047-1.7971191-11.9628906-1.7692871-17.6401367.6379395-4.9853516-5.4931641-2.3461914-7.8044434-4.5834961-.5087891-.6010742-.5620117-1.4448242-.5666504-2.2358398.1762695-2.3105469.0964355-5.0112305.8149414-7.1367188l.0266113-.0483398c.4577637-.8295898,1.489502-.5639648,3.4443359-.4389648,7.3395996.590332,20.7294922,1.6328125,24.7924805,1.9868164,2.1584473.0507812,1.4128418,1.8701172,1.3779297,3.6625977ZM406.8123681,1607.1624224l-12.8208008-1.1220703.2924805-3.3398438,10.0776367.8818359.5698242-6.5126953,2.7431641.2392578-.8623047,9.8535156ZM408.5428369,1589.9573443c-.1230469,1.40625-.4731445,2.5888672-1.0527344,3.546875-.5786133.9570312-1.3833008,1.6611328-2.4130859,2.1103516-1.0292969.4492188-2.2841797.609375-3.765625.4794922-1.4794922-.1289062-2.6845703-.5039062-3.6152344-1.125-.9296875-.6201172-1.5961914-1.453125-2.0004883-2.4970703-.4033203-1.0439453-.5444336-2.2695312-.4213867-3.6757812.1230469-1.4052734.4746094-2.5869141,1.0532227-3.5458984.5795898-.9589844,1.3803711-1.6630859,2.4038086-2.1123047,1.0239258-.4492188,2.2758789-.609375,3.7558594-.4804688,1.480957.1298828,2.6889648.5048828,3.625,1.1259766.9360352.6201172,1.6064453,1.453125,2.0097656,2.4980469.4042969,1.0458984.5439453,2.2695312.4208984,3.6757812ZM409.3382471,1578.2932818l-10.0776367-.8818359-.3642578,4.1621094-2.7431641-.2402344,1.0205078-11.6650391,2.7431641.2402344-.3642578,4.1621094,10.0776367.8808594-.2919922,3.3417969ZM410.9070947,1560.3577349l-5.1689453-.4521484-.4555664,5.2080078,5.1689453.453125-.2924805,3.3398438-12.8203125-1.1220703.2919922-3.3398438,4.9267578.4306641.4555664-5.2080078-4.9267578-.4306641.2919922-3.3398438,12.8208008,1.1210938-.2919922,3.3398438ZM411.4442041,1554.2190631l-12.8208008-1.1220703.2919922-3.3398438,12.8208008,1.1220703-.2919922,3.3398438ZM412.76354,1539.1409381l-6.703125,4.3964844c-.2128906.1435547-.4321289.2792969-.65625.4033203-.2236328.1240234-.4077148.2246094-.5522461.2998047l.0102539.09375c.1992188.0175781.4013672.0351562.6064453.0537109.2055664.0175781.3764648.0322266.5131836.0449219l6.2705078.5478516-.2709961,3.0976562-12.8208008-1.1210938.2597656-2.9667969,6.3608398-4.1455078c.1074219-.078125.2607422-.1796875.4594727-.3066406.1992188-.1269531.4018555-.2509766.605957-.3701172.2055664-.1210938.3662109-.2060547.4833984-.2587891l-.0097656-.0957031c-.2739258-.0244141-.5380859-.046875-.793457-.0693359-.2548828-.0224609-.4697266-.0410156-.644043-.0566406l-5.953125-.5205078.2709961-3.0966797,12.8208008,1.1210938-.2578125,2.9492188ZM414.1966455,1522.7542193l-1.3710938.2001953c.3144531.4160156.5708008.8564453.7685547,1.3183594s.3295898.9619141.3950195,1.5009766.0693359,1.1367188.0117188,1.796875c-.1806641,2.0644531-.8652344,3.5878906-2.0541992,4.5683594-1.1884766.9804688-2.9033203,1.3730469-5.1430664,1.1767578-1.4799805-.1289062-2.6850586-.5009766-3.6162109-1.1152344-.9301758-.6142578-1.5966797-1.4492188-1.9995117-2.5068359-.4023438-1.0566406-.5415039-2.3007812-.4165039-3.7314453.0751953-.8583984.2456055-1.6582031.5112305-2.3994141.265625-.7421875.6196289-1.3886719,1.0625-1.9384766.4433594-.5507812.9746094-.9619141,1.5932617-1.2333984.6201172-.2724609,1.3276367-.3730469,2.1235352-.3027344l-.2875977,3.2832031c-.3349609-.0292969-.6435547.0195312-.9248047.1445312-.2797852.1269531-.5224609.3154297-.7265625.5673828-.203125.2519531-.3671875.5478516-.4907227.8876953-.1245117.3408203-.2026367.703125-.2363281,1.0888672-.050293.5722656-.0200195,1.0859375.0908203,1.5410156.1108398.4541016.309082.8388672.5952148,1.1513672.2856445.3134766.6464844.5615234,1.0820312.7441406.4355469.1816406.9516602.2988281,1.5483398.3505859l.8217773.0722656c.7963867.0693359,1.4726562.0048828,2.0292969-.1972656s.9912109-.5439453,1.3022461-1.0244141c.3120117-.4804688.4995117-1.0878906.5639648-1.8222656.0498047-.5722656.0078125-1.0927734-.1269531-1.5625-.1342773-.46875-.3549805-.8525391-.6611328-1.1494141-.3061523-.2949219-.6894531-.4638672-1.1499023-.5039062l-.0932617-.0078125-.3017578,3.453125-2.3515625-.2060547.5859375-6.7001953,7.0356445.6162109-.1699219,1.9394531ZM415.3738916,1509.3010943l-.46875,5.3554688-12.8208008-1.1220703.46875-5.3554688c.121582-1.3935547.4555664-2.5517578.9995117-3.4755859.5449219-.9248047,1.309082-1.5976562,2.2924805-2.0195312s2.2094727-.5683594,3.6772461-.4404297c1.4560547.1279297,2.637207.4853516,3.5449219,1.0722656.9082031.5869141,1.5498047,1.3828125,1.925293,2.3886719.3764648,1.0039062.5029297,2.2021484.3813477,3.5966797ZM416.1409814,1500.5296099l-12.8208008-1.1220703.9257812-10.5820312,2.612793.2285156-.6333008,7.2412109,2.4072266.2109375.5532227-6.3261719,2.5566406.2236328-.5532227,6.3261719,2.6318359.2294922.6450195-7.3710938,2.6123047.2285156-.9375,10.7128906ZM417.9681299,1482.2229693c-.0708008.8105469-.2084961,1.5625-.4135742,2.2578125-.2050781.6972656-.4926758,1.3027344-.8637695,1.8154297-.3706055.5126953-.8344727.9013672-1.3901367,1.1660156s-1.2197266.3642578-1.9912109.2958984c-.0498047-.0039062-.1054688-.0087891-.1679688-.0146484-.0620117-.0048828-.1113281-.015625-.1479492-.03125l.2827148-3.2294922c.0375977.0029297.0839844.0097656.1391602.0214844.0556641.0117188.1020508.0185547.1391602.0214844.3984375.0351562.7275391-.0390625.9882812-.2226562.2602539-.1845703.4599609-.4589844.5981445-.8222656.1386719-.3652344.2294922-.7949219.2729492-1.2929688.0239258-.2734375.0336914-.5292969.0297852-.7685547-.0043945-.2373047-.0288086-.453125-.0751953-.6455078-.0454102-.1923828-.1088867-.3632812-.1899414-.515625-.0810547-.1503906-.1835938-.2666016-.3085938-.3457031-.1240234-.0800781-.2734375-.1279297-.4477539-.1435547-.2861328-.0244141-.5322266.0634766-.7382812.265625-.2050781.2011719-.3862305.4804688-.5429688.8359375-.15625.3564453-.3110352.7587891-.4628906,1.2099609-.152832.4511719-.3129883.9189453-.480957,1.4052734-.1674805.4873047-.3652344.9521484-.5917969,1.3955078-.2275391.4453125-.4995117.8388672-.8173828,1.1796875-.3183594.3417969-.7016602.6035156-1.1503906.7841797-.4482422.1796875-.9770508.2431641-1.5864258.1894531-.6723633-.0585938-1.2412109-.2519531-1.7075195-.5820312-.4663086-.328125-.8330078-.7587891-1.1000977-1.2900391-.2666016-.53125-.4428711-1.1328125-.5288086-1.8046875-.0844727-.671875-.0952148-1.3808594-.0302734-2.1269531.0644531-.734375.199707-1.4140625.4047852-2.0429688.2055664-.6269531.4882812-1.1767578.8491211-1.6455078.3608398-.4707031.7929688-.8242188,1.296875-1.0625.503418-.2382812,1.0908203-.3339844,1.7646484-.2880859l.2236328.0195312-.28125,3.2109375-.1308594-.0107422c-.2856445-.0253906-.5444336.0292969-.7753906.1660156-.2314453.1357422-.4262695.3544922-.5844727.6542969-.1577148.2998047-.2563477.6796875-.2963867,1.1396484-.0400391.4609375-.0307617.8525391.0283203,1.1777344s.1625977.578125.3095703.7607422c.1469727.1816406.3320312.2822266.5561523.3027344.2739258.0234375.5078125-.0664062.7006836-.2685547.1933594-.2021484.3686523-.484375.5258789-.8466797.1567383-.3623047.3081055-.7695312.4541016-1.2197266.1459961-.4521484.2993164-.9179688.4609375-1.3994141.1611328-.4814453.3520508-.9433594.5727539-1.3876953s.4873047-.8417969.7993164-1.1894531c.3129883-.3496094.6845703-.6152344,1.1137695-.7958984.4296875-.1826172.9370117-.2480469,1.5219727-.1972656,1.0205078.0898438,1.8203125.4003906,2.3999023.9345703.5810547.5341797.9770508,1.2324219,1.1894531,2.0976562s.2724609,1.8261719.1801758,2.8828125ZM418.4168603,1474.5139849l-12.8208008-1.1210938.2924805-3.3398438,12.8208008,1.1210938-.2924805,3.3398438ZM419.8846338,1457.7366412l-1.3710938.2001953c.3144531.4169922.5708008.8564453.7685547,1.3183594.1977539.4628906.3295898.9628906.3950195,1.5009766.0654297.5390625.0693359,1.1367188.0117188,1.796875-.1806641,2.0664062-.8652344,3.5878906-2.0541992,4.5683594-1.1884766.9804688-2.9033203,1.3730469-5.1430664,1.1767578-1.4799805-.1289062-2.6850586-.5009766-3.6157227-1.1152344s-1.597168-1.4492188-2-2.5068359c-.4023438-1.0566406-.5415039-2.3007812-.4165039-3.7314453.0751953-.8583984.2456055-1.6582031.5112305-2.3994141.265625-.7421875.6196289-1.3876953,1.0625-1.9384766.4433594-.5507812.9746094-.9619141,1.5932617-1.2333984.6201172-.2724609,1.3276367-.3730469,2.1235352-.3027344l-.2871094,3.2832031c-.3359375-.0292969-.644043.0195312-.925293.1445312-.2797852.1269531-.5224609.3154297-.7265625.5673828-.203125.2519531-.3671875.5488281-.4907227.8876953-.1245117.3408203-.2026367.703125-.2363281,1.0888672-.050293.5732422-.0200195,1.0869141.0908203,1.5410156s.309082.8388672.5947266,1.1523438c.2861328.3134766.6469727.5615234,1.0825195.7431641.4350586.1826172.9516602.2988281,1.5483398.3505859l.8217773.0722656c.7963867.0693359,1.4726562.0048828,2.0288086-.1972656.5571289-.2021484.9912109-.5439453,1.3027344-1.0244141.3120117-.4804688.4995117-1.0878906.5634766-1.8222656.050293-.5722656.0083008-1.0917969-.1264648-1.5615234-.1342773-.4697266-.3549805-.8525391-.6611328-1.1494141-.3061523-.2958984-.6894531-.4648438-1.1499023-.5048828l-.0932617-.0078125-.3022461,3.453125-2.3515625-.2060547.5864258-6.7001953,7.0356445.6162109-.1699219,1.9394531ZM421.0667627,1444.2268756l-6.703125,4.3964844c-.2128906.1435547-.4316406.2792969-.6557617.4033203-.2241211.125-.4077148.2246094-.5527344.2998047l.0102539.09375c.1992188.0175781.4013672.0351562.6064453.0537109.2055664.0175781.3764648.0322266.5131836.0449219l6.2705078.5478516-.2709961,3.0976562-12.8208008-1.1210938.2597656-2.9667969,6.3613281-4.1455078c.1074219-.0771484.2602539-.1796875.4594727-.3056641.1987305-.1279297.4013672-.2509766.605957-.3710938.2050781-.1201172.3657227-.2060547.4833984-.2587891l-.0102539-.0947266c-.2739258-.0244141-.5380859-.046875-.793457-.0693359-.2548828-.0224609-.4697266-.0410156-.644043-.0566406l-5.953125-.5205078.2709961-3.0976562,12.8208008,1.1210938-.2578125,2.9492188ZM421.5726221,1438.4417193l-12.8208008-1.1210938.9257812-10.5820312,2.612793.2285156-.6333008,7.2412109,2.4072266.2109375.5532227-6.3261719,2.5566406.2236328-.5532227,6.3261719,2.6318359.2294922.6445312-7.3710938,2.6123047.2294922-.9370117,10.7109375ZM423.4451806,1417.0374224l-4.7026367,1.7314453-.2563477,2.9306641,4.5166016.3945312-.2919922,3.3398438-12.8208008-1.1210938.6513672-7.4462891c.0825195-.9443359.3291016-1.7197266.7392578-2.3232422.409668-.6035156.9370117-1.0361328,1.5805664-1.2998047.6435547-.2646484,1.3452148-.3623047,2.1040039-.2958984.8208008.0712891,1.5356445.3261719,2.1430664.7597656.6079102.4375,1.0615234,1.0117188,1.3623047,1.7285156l5.3012695-2.1328125-.3266602,3.734375Z"/>
        <path d="M392.7222803,1648.9251178l-.0620117.0424805c-.8039551.4375-.9169922,2.4291992-1.0324707,3.9682617-.0761719,2.7114258-.8815918,5.5761719.157959,7.8374023.7580566,1.4643555,2.7670898,1.9956055,4.0935059.965332,1.9743652-1.2260742,1.7089844-5.8676758,2.0422363-8.5986328.1462402-1.8256836.2346191-3.1650391-.470459-3.7924805-1.1733398-.8911133-3.467041-1.0488281-4.7287598-.4223633Z"/>
        <path d="M223.4459131,1722.1004107c-.9226074-1.1621094-1.7375488-2.059082-2.6765137-2.4765625-1.6335449-.7944336-3.7583008.2119141-4.1103516,2.0097656-.4404297,1.7915039.9677734,3.534668,2.800293,5.9389648.6865234.9008789,1.416748,1.859375,2.1086426,2.7666016,1.439209,1.7333984,1.9953613,3.0922852,3.6831055,2.8725586,1.3444824-.3686523,2.9050293-1.5229492,3.4399414-2.7753906l.0241699-.0776367c.2983398-.9272461-.451416-1.9604492-1.5915527-3.4526367-1.2165527-1.5874023-2.5134277-3.3188477-3.6777344-4.8056641Z"/>
        <path d="M284.7818506,1594.3157428c.4562988.7509766,1.637207.8793945,3.3781738,1.0273438,2.8566895.0859375,6.4155273.9980469,8.9892578.2055664,1.5424805-.5712891,2.2004395-2.5825195,1.1655273-3.8930664-.9658203-1.3623047-3.046875-1.4848633-5.8500977-1.7265625-1.0500488-.090332-2.1669922-.1865234-3.2250977-.2773438-2.1435547-.1298828-3.4233398-.4692383-4.2351074.6230469-.6308594,1.0976562-.7976074,2.8647461-.2612305,3.9790039l.0385742.0620117Z"/>
        <path d="M392.6170556,1687.3479693c-1.0256348-.5751953-2.5356445-1.0893555-3.6611328-.8291016l-.0761719.0229492c-.9162598.2714844-1.3293457,1.4311523-1.894043,3.1508789-.598877,1.8320312-1.269043,3.8071289-1.8161621,5.543457-.4204102,1.3671875-.6872559,2.503418-.4978027,3.4760742.2844238,1.7509766,2.2958984,2.8554688,3.9284668,2.15625,1.7236328-.6425781,2.3312988-2.7744141,3.2717285-5.6152344.3422852-1.0390625.7058105-2.140625,1.0500488-3.1855469.7385254-2.3759766,1.392334-3.6870117-.3049316-4.7197266Z"/>
        <path d="M266.645376,1745.0100787c-.5917969-.8408203-2.1252441-1.5258789-3.7949219-2.265625-2.932373-1.3398438-6.2248535-1.8740234-8.9267578-.0229492-3.1269531,2.1665039-4.7570801,6.8598633-2.8051758,10.3071289,1.4257812,2.6357422,4.78125,4.3510742,7.6091309,5.4731445,2.0839844.7006836,2.5566406-.4199219,3.5854492-2.5141602,1.0205078-2.1025391,2.4094238-4.9633789,3.4277344-7.0625.8415527-1.8515625,1.5473633-2.7919922.9450684-3.8535156l-.0405273-.0615234Z"/>
      </g>
    </g>
  </g>
</svg>